<svg version="1.1" id="Layer_1" xmlns="http://www.w3.org/2000/svg" xmlns:xlink="http://www.w3.org/1999/xlink" x="0px" y="0px"
	 width="100%" viewBox="0 0 1024 1024" enable-background="new 0 0 1024 1024" xml:space="preserve">
<path fill="currentColor" opacity="1.000000" stroke="none" 
	d="
M833.049927,693.875488 
	C815.985901,727.442688 789.126892,744.393250 751.623718,743.240295 
	C718.042236,742.207886 687.450073,713.555725 683.589844,680.178894 
	C683.149414,676.370728 682.507446,672.586487 682.688232,668.745789 
	C682.872009,664.841431 680.868408,663.308594 677.223633,663.347595 
	C675.890869,663.361816 674.557617,663.329407 673.224609,663.330627 
	C634.398865,663.365173 595.572998,663.361816 556.747437,663.456787 
	C541.255371,663.494629 525.763794,663.854004 510.272095,663.843323 
	C505.635803,663.840088 503.734497,665.220337 503.048737,670.247131 
	C497.762787,708.995422 467.579895,738.512878 429.030121,743.127075 
	C387.395874,748.110474 349.921173,717.441162 346.601379,675.667419 
	C345.696381,664.279724 345.696289,664.315613 334.191528,664.298523 
	C330.541412,664.293091 326.875000,664.634766 323.248596,663.718811 
	C315.249084,661.698120 311.507874,657.377319 311.739166,649.126160 
	C312.099213,636.280090 316.232788,624.263550 321.164154,612.599670 
	C331.453522,588.262939 348.495575,569.012024 368.007446,551.712891 
	C368.878265,550.940918 369.777435,550.194336 370.582764,549.358276 
	C370.897491,549.031555 370.989624,548.490356 371.177216,548.060486 
	C370.345123,545.982178 368.457489,546.384766 366.905731,546.104309 
	C351.148376,543.256775 345.627899,529.830811 354.846832,516.736328 
	C355.508331,515.796753 356.348175,514.956299 356.336426,513.751648 
	C354.825562,511.572388 352.638550,512.296265 350.767456,512.286560 
	C336.937134,512.214722 323.106232,512.271729 309.275696,512.225220 
	C298.188171,512.187988 293.225342,506.610626 293.871674,495.598541 
	C295.266052,471.841248 296.450623,448.071686 297.773468,424.310028 
	C298.272888,415.339081 298.635834,406.346466 299.577850,397.418274 
	C300.438080,389.264709 305.860382,384.726410 314.128082,384.714478 
	C351.120880,384.661224 388.113861,384.650116 425.106628,384.709473 
	C433.556915,384.723022 438.580902,389.721802 438.222015,398.235138 
	C437.457764,416.362762 436.279968,434.472565 435.342346,452.593353 
	C434.568298,467.552490 433.920441,482.518127 433.162231,497.478119 
	C432.955322,501.561096 431.561737,505.267670 427.822662,509.443817 
	C435.950165,510.029388 442.842102,509.931793 449.375580,509.523926 
	C450.425598,507.741730 449.704712,506.985901 449.001678,506.271576 
	C435.368500,492.420166 432.934387,476.063080 437.655701,457.809326 
	C444.326141,432.020050 458.972321,411.010651 476.695801,391.863861 
	C496.837646,370.104492 520.095947,352.013763 544.434570,335.238068 
	C545.960571,334.186249 548.514648,333.666534 548.114868,331.094116 
	C547.688110,328.347870 545.255127,328.341431 543.085938,327.967957 
	C539.407837,327.334778 538.029541,324.347046 537.057373,321.295380 
	C531.681763,304.420685 534.200073,288.648834 544.511047,274.353546 
	C556.533081,257.686035 578.940125,249.387436 597.481018,254.716492 
	C613.771973,259.398865 622.797241,271.182068 627.148254,286.942078 
	C628.240845,290.899780 628.022949,294.931946 623.893188,297.597473 
	C621.664429,299.036072 622.231445,301.450012 622.315735,303.548462 
	C622.762390,314.672424 621.402893,325.509003 617.046265,335.816895 
	C611.005554,350.109131 601.127869,359.488098 584.796997,360.145264 
	C581.837952,360.264343 580.928711,361.698242 581.382446,364.290283 
	C583.959839,379.013062 585.208862,394.011688 590.331238,408.211121 
	C592.200317,413.392059 592.668030,413.468048 597.279114,410.667175 
	C602.260925,407.641083 607.295471,404.700378 612.341919,401.782623 
	C614.247437,400.680786 616.198547,399.688202 616.498657,397.183929 
	C617.890381,385.572632 625.137634,377.354309 632.364380,368.945953 
	C641.198914,358.666992 652.319153,354.443512 665.539551,354.681824 
	C670.026001,354.762756 674.526367,354.443848 679.001831,354.671600 
	C685.287170,354.991455 690.218689,358.076691 693.229004,363.518860 
	C699.352051,374.588379 703.012939,386.469849 703.278992,399.188629 
	C703.459778,407.831818 700.340454,411.290680 691.838318,413.573151 
	C689.397583,414.228394 686.370178,413.545258 684.515442,416.110168 
	C684.558472,418.638733 686.503723,419.885284 688.014343,421.331848 
	C695.990784,428.969971 705.098755,435.176453 714.119385,441.446381 
	C727.008179,450.404968 738.096436,461.047760 746.388428,474.430695 
	C756.743042,491.142517 755.887024,507.700378 744.030273,523.165649 
	C743.229492,524.210144 742.480225,525.294128 741.472290,526.683167 
	C744.656738,528.300903 747.957886,528.431396 751.091248,529.096436 
	C790.914429,537.549561 816.563293,562.712280 833.283813,598.543152 
	C836.853821,606.193481 837.334656,613.269531 831.055786,619.699829 
	C829.406128,621.389282 830.433411,622.675171 831.192810,624.144470 
	C842.979065,646.947998 843.176331,670.089966 833.049927,693.875488 
M602.075256,628.389893 
	C604.238403,629.112549 605.956238,627.865540 607.738525,627.048340 
	C631.010620,616.378052 644.063232,597.261414 650.507202,573.432556 
	C657.186340,548.733765 657.871582,523.452332 654.346313,498.175842 
	C651.106689,474.946594 645.011841,452.544861 632.400269,432.382080 
	C631.365723,430.728027 630.795654,428.702911 628.506897,427.609589 
	C619.836731,432.316040 611.953125,438.438293 603.878906,444.259094 
	C583.560791,458.906738 564.852905,453.346710 555.936951,429.928253 
	C555.049255,427.596741 554.421509,425.166504 553.540771,422.832001 
	C553.039795,421.504150 553.124939,419.795807 550.989258,418.842041 
	C547.681580,424.068054 544.448242,429.418579 540.976013,434.609344 
	C534.864075,443.746368 528.382568,452.645874 523.090698,462.305695 
	C519.995239,467.956299 520.725098,469.487518 526.847290,470.954224 
	C527.979736,471.225525 529.119019,471.468323 530.256592,471.717957 
	C555.933044,477.353485 581.620911,482.937714 607.280884,488.647461 
	C617.710388,490.968140 623.097534,497.913788 623.342468,508.584625 
	C623.683533,523.448120 617.953857,536.517639 611.457825,549.365051 
	C603.720337,564.667908 594.660767,579.302124 588.150085,595.223633 
	C585.499023,601.706543 583.214783,608.290833 583.012207,615.441101 
	C582.903015,619.295593 583.976501,621.752625 588.189026,622.418579 
	C593.026062,623.183289 597.364075,625.345947 602.075256,628.389893 
M766.294312,694.836182 
	C783.176208,690.665344 794.667175,675.020996 792.131042,659.660950 
	C788.203796,635.875671 762.692932,625.994263 743.362244,640.770752 
	C731.764771,649.635986 727.522705,665.732788 733.351318,678.758057 
	C738.794983,690.923035 751.948181,697.574219 766.294312,694.836182 
M558.062256,570.615906 
	C563.970825,558.675537 568.893799,546.314941 573.660583,533.890686 
	C574.400879,531.961121 575.784485,529.820557 573.329224,528.050537 
	C569.787354,525.497070 563.846680,527.439575 562.442017,531.568054 
	C559.045898,541.549622 552.945923,546.086609 542.433716,546.265198 
	C540.001038,546.306580 537.906250,546.633057 536.174927,548.599182 
	C525.998169,560.155457 519.470947,573.128662 521.403320,588.981262 
	C522.534851,598.264526 526.362061,606.392944 534.479187,612.847168 
	C543.995544,599.605530 550.821350,585.419861 558.062256,570.615906 
M454.656677,671.240723 
	C456.260895,665.102783 455.156067,663.510132 448.505768,663.459045 
	C432.703094,663.337585 416.898865,663.379700 401.095428,663.419434 
	C394.836975,663.435181 393.487640,665.120728 394.407684,671.376343 
	C396.007599,682.254578 404.968903,691.998291 415.819458,694.657715 
	C432.340088,698.706726 448.188873,689.400269 454.656677,671.240723 
z"/>
<path fill="currentColor" opacity="1.000000" stroke="none" 
	d="
M443.892578,759.084351 
	C449.081757,759.482361 453.798126,759.874329 458.514526,760.266296 
	C458.495758,760.989868 458.476990,761.713379 458.458221,762.436951 
	C404.227051,772.315186 349.730713,773.007751 295.039642,766.955383 
	C295.007690,766.106201 294.975739,765.257019 294.943756,764.407898 
	C344.295471,759.523682 393.911865,760.502136 443.892578,759.084351 
z"/>
<path fill="currentColor" opacity="1.000000" stroke="none" 
	d="
M838.526978,764.782593 
	C839.922302,767.704651 837.542053,767.152588 836.389099,767.289917 
	C830.445007,767.998230 824.492004,768.878174 818.521545,769.076233 
	C791.562683,769.970276 764.625061,771.556091 737.631958,771.430420 
	C729.480347,771.392456 721.700867,770.407959 714.530518,766.286377 
	C710.171753,763.780884 704.804321,764.301758 700.104919,761.695801 
	C701.439209,759.574951 703.391174,760.009399 705.022644,759.975952 
	C734.176331,759.379395 763.296814,760.551941 792.425781,761.519958 
	C805.907166,761.967957 819.374634,762.440369 832.803589,763.723083 
	C834.612671,763.895874 836.399170,764.304749 838.526978,764.782593 
z"/>
<path fill="currentColor" opacity="1.000000" stroke="none" 
	d="
M209.000122,412.385681 
	C203.177063,412.382690 197.853516,412.337250 192.530945,412.390137 
	C188.790619,412.427307 185.684006,411.557953 185.779877,407.060150 
	C185.871460,402.762817 188.820984,401.603271 192.602234,401.606567 
	C212.397568,401.623871 232.192947,401.609680 251.988312,401.609436 
	C260.638397,401.609344 269.288757,401.661133 277.938385,401.599243 
	C281.596527,401.573059 285.029480,402.187927 285.025330,406.608978 
	C285.021210,410.951569 281.915527,412.395233 277.868958,412.389648 
	C255.079376,412.358185 232.289703,412.380981 209.000122,412.385681 
z"/>
<path fill="currentColor" opacity="1.000000" stroke="none" 
	d="
M641.000000,758.838013 
	C654.204956,758.906311 666.941101,758.440796 680.337524,760.711304 
	C677.046143,764.084778 672.554626,763.436890 669.974487,766.172668 
	C669.913574,768.906921 673.463806,768.113037 673.761902,770.517517 
	C672.761292,772.547668 670.683533,771.955261 669.035461,771.963013 
	C651.588684,772.044922 634.141479,772.031250 616.694397,772.027527 
	C615.700806,772.027344 614.650574,772.064697 613.724426,771.773621 
	C611.185242,770.975708 606.902039,771.811279 606.814453,768.392395 
	C606.736816,765.360229 609.109253,762.208679 612.321960,760.664490 
	C615.050232,759.353149 618.040405,758.950623 621.058716,758.928955 
	C627.539062,758.882324 634.019531,758.866211 641.000000,758.838013 
z"/>
<path fill="currentColor" opacity="1.000000" stroke="none" 
	d="
M261.997253,434.935608 
	C267.153320,434.960541 271.812531,434.901245 276.466034,435.037109 
	C279.954865,435.139008 283.029449,436.514435 282.981354,440.417542 
	C282.932800,444.353668 280.097809,446.251251 276.261322,446.258453 
	C254.472595,446.299316 232.683746,446.294830 210.894989,446.274811 
	C207.534882,446.271729 204.917358,445.054199 204.745880,441.241364 
	C204.583115,437.622101 206.777542,435.745544 210.120743,435.203461 
	C211.911896,434.912994 213.765854,434.945221 215.591614,434.943176 
	C230.893707,434.925842 246.195831,434.934387 261.997253,434.935608 
z"/>
<path fill="currentColor" opacity="1.000000" stroke="none" 
	d="
M241.000000,480.203430 
	C233.680466,480.198975 226.860916,480.181946 220.041412,480.193878 
	C216.323654,480.200348 213.107758,479.091248 212.998062,474.884735 
	C212.882156,470.440613 216.246994,468.913849 220.071091,468.894257 
	C238.200333,468.801483 256.330353,468.835968 274.460022,468.874969 
	C278.059784,468.882721 280.950562,470.455658 280.796112,474.340118 
	C280.640137,478.261932 277.711273,480.098236 273.933899,480.129791 
	C263.123138,480.220062 252.311371,480.187286 241.000000,480.203430 
z"/>
</svg>