<svg version="1.1" id="Layer_1" xmlns="http://www.w3.org/2000/svg" xmlns:xlink="http://www.w3.org/1999/xlink" x="0px" y="0px"
	 width="100%" viewBox="0 0 1024 976" enable-background="new 0 0 1024 976" xml:space="preserve">
<path fill="currentColor" opacity="1.000000" stroke="currentColor" stroke-width="25"
	d="
M0.999998,500.468658 
	C2.113011,497.417572 3.079214,494.759552 4.363094,492.265076 
	C12.152574,477.130402 24.636026,469.296967 41.615261,468.778229 
	C48.274822,468.574799 54.945889,468.749725 61.611717,468.749573 
	C175.930771,468.747192 290.249817,468.746735 404.568878,468.739929 
	C431.471985,468.738312 442.456787,476.198486 452.078064,501.081329 
	C453.568298,501.546509 454.580048,500.506805 455.661377,499.821350 
	C478.040680,485.635284 500.728333,471.940491 523.924561,459.155670 
	C535.438232,452.809814 548.366272,449.519836 560.630432,444.786316 
	C569.641296,441.308502 578.712402,437.978943 587.823303,434.772583 
	C591.078796,433.626923 593.022217,431.744507 594.227844,428.452118 
	C598.865601,415.786469 603.728210,403.202698 608.567261,390.611572 
	C609.550720,388.052765 609.738403,386.145020 607.085754,384.185333 
	C579.934753,364.127014 564.454956,336.151581 554.079895,304.903931 
	C544.794495,276.938141 540.332764,248.080063 538.511047,218.702972 
	C537.845459,207.969864 537.986633,197.211502 537.483215,185.499557 
	C531.606628,189.997559 527.814453,194.965591 524.599670,200.354080 
	C522.215698,204.349899 520.195557,208.568756 518.120544,212.741608 
	C514.150513,220.725510 506.431519,223.978867 498.604248,220.881958 
	C490.795532,217.792389 486.835236,209.330215 490.196228,201.089294 
	C499.760040,177.639252 513.628052,158.040649 538.992859,149.484665 
	C542.087585,148.440765 542.728699,145.986221 543.556641,143.474472 
	C551.260132,120.105400 561.478027,97.904236 574.831238,77.223412 
	C592.920349,49.207977 614.871704,25.263700 645.793884,10.933933 
	C656.784485,5.840711 668.431763,3.200126 680.651001,1.155739 
	C698.354248,1.000000 715.708435,1.000000 733.868530,1.169563 
	C738.923340,2.134512 743.187500,2.856972 747.419067,3.736332 
	C802.845520,15.254452 838.753296,47.756180 853.580566,102.761894 
	C862.173950,134.641434 861.627441,166.958786 857.765381,199.397568 
	C857.354980,202.844467 856.516052,206.210037 858.536438,209.568466 
	C868.828491,226.675751 868.062805,244.148331 859.496643,261.527191 
	C851.152893,278.454773 837.422607,290.555298 822.337097,301.252625 
	C819.394226,303.339417 817.153076,305.708160 815.594543,309.007690 
	C806.719116,327.798157 795.570679,345.110107 781.424316,360.398926 
	C779.641907,362.325317 779.168945,364.077850 779.953430,366.676697 
	C784.617371,382.127808 789.135376,397.623535 793.601379,413.133362 
	C794.402832,415.916595 795.992310,417.627594 798.523071,418.976074 
	C811.459045,425.868835 824.352844,432.842987 837.196106,439.907288 
	C888.608765,468.186401 938.791809,498.466736 986.939331,532.055176 
	C1004.975830,544.637756 1021.864746,558.072327 1025.000000,582.000000 
	C1025.000000,592.687561 1025.000000,603.375122 1024.881104,614.917847 
	C1024.238647,622.562256 1023.917847,629.374390 1023.155151,636.136658 
	C1020.285583,661.579285 1017.861450,687.069641 1014.398132,712.449219 
	C1009.876343,745.585327 1004.865417,778.624451 995.855408,810.889465 
	C992.095215,824.354614 987.948364,837.794495 979.156494,849.097290 
	C973.843811,855.927246 967.130798,859.781982 958.060791,859.173950 
	C944.490601,858.264221 931.347717,855.345947 918.700562,850.607788 
	C913.415710,848.627930 909.893494,849.360779 905.872070,853.061707 
	C882.710083,874.377625 859.313599,895.438538 836.107971,916.707397 
	C820.267151,931.226135 804.565186,945.897278 788.886597,960.591614 
	C781.512756,967.502625 772.669983,972.100159 764.000000,977.000000 
	C739.312439,977.000000 714.624878,977.000000 689.222290,976.748230 
	C685.714355,975.447266 682.962463,974.268311 680.121765,973.370300 
	C663.777527,968.203796 647.441833,963.006775 631.048401,957.999451 
	C580.601868,942.590881 530.141479,927.210999 478.546814,915.983521 
	C466.858612,913.440002 455.104340,910.455994 443.018829,911.484497 
	C418.272247,913.590576 393.540527,915.067078 368.700653,913.320129 
	C346.524017,911.760376 324.625671,908.741394 303.877136,900.325867 
	C284.096863,892.303040 266.807617,881.041748 258.020691,860.448792 
	C255.911072,855.504761 253.294205,853.984131 248.050476,853.997864 
	C179.910065,854.176880 111.769035,854.105713 43.628185,854.144104 
	C29.282377,854.152222 17.267078,849.375061 8.337635,837.757141 
	C4.705727,833.031677 3.022310,827.448608 1.000000,822.000000 
	C1.000000,714.979126 1.000000,607.958191 0.999998,500.468658 
M608.728455,560.614380 
	C606.890686,554.335510 605.716675,547.838318 603.015808,541.363770 
	C601.450684,542.654602 600.417114,543.467834 599.426453,544.330139 
	C587.364319,554.829590 575.549988,565.631165 563.181885,575.756409 
	C551.316223,585.470276 537.329041,579.931946 534.633057,565.083740 
	C530.979126,544.959229 527.198059,524.857117 523.304138,504.777802 
	C522.793274,502.143372 523.124023,499.084930 520.660583,496.711151 
	C519.031616,497.591461 517.403015,498.390411 515.853577,499.321167 
	C496.143890,511.161621 476.705902,523.434021 457.355347,535.852539 
	C453.506958,538.322266 452.207336,541.086182 452.215759,545.591736 
	C452.352570,618.750061 452.315491,691.908691 452.322296,765.067261 
	C452.323303,776.016235 452.334351,776.014954 463.339874,778.024719 
	C464.486176,778.234131 465.623047,778.497070 466.771973,778.689636 
	C512.056946,786.280701 557.341858,793.872559 602.628967,801.451111 
	C636.595337,807.135254 670.564941,812.800171 704.532349,818.478027 
	C707.933777,819.046509 711.082642,818.546448 714.173096,816.878113 
	C721.285950,813.038574 726.284058,807.031921 730.978210,800.742188 
	C744.823425,782.190796 754.510254,761.340576 763.851990,740.345947 
	C779.032959,706.228638 791.416077,671.045288 803.119690,635.616455 
	C804.241455,632.220642 805.708191,629.126404 808.608093,626.888062 
	C813.978577,622.742859 821.361206,622.508667 826.801819,626.313599 
	C832.244873,630.120422 834.506165,637.167480 832.202881,644.089417 
	C820.793579,678.377625 808.911743,712.496521 794.799316,745.788330 
	C793.593750,748.632385 793.330017,750.334778 796.384766,752.287231 
	C826.731934,771.682861 857.694458,790.002563 890.148010,805.666870 
	C908.902100,814.718933 927.865479,823.300171 948.580261,827.196411 
	C952.782410,827.986755 954.723755,826.698364 956.272766,823.107117 
	C959.181458,816.363464 961.647949,809.479187 963.631287,802.416504 
	C969.710388,780.769043 973.727478,758.694336 977.268799,736.520996 
	C981.070923,712.714722 984.172852,688.816162 986.699219,664.842529 
	C988.615906,646.653870 990.564026,628.467957 992.348633,610.266174 
	C993.129517,602.301392 993.431213,594.266602 992.523071,586.309692 
	C991.311951,575.698853 984.448120,568.634033 976.344543,562.682800 
	C939.360168,535.521912 900.131775,511.871399 860.598022,488.686127 
	C856.357483,486.199188 854.333557,486.435120 851.602722,490.732391 
	C834.000549,518.430969 816.125977,545.956665 798.301697,573.513794 
	C791.536011,583.973938 784.945312,585.682983 773.762512,579.923218 
	C756.286987,570.922241 738.844666,561.856750 721.376587,552.841309 
	C715.367676,549.740051 709.323547,546.706726 703.110596,543.548401 
	C691.266663,564.410461 679.771851,584.686279 668.246643,604.944824 
	C663.304932,613.631226 658.398743,622.340454 653.286499,630.926208 
	C650.300537,635.941040 645.460938,638.407654 639.791077,637.851318 
	C633.725220,637.256104 629.407776,633.595459 627.110535,627.856628 
	C626.433899,626.166260 626.058472,624.353027 625.577209,622.587341 
	C620.019531,602.195801 614.467957,581.802551 608.728455,560.614380 
M61.500004,823.715271 
	C94.989212,823.711609 128.478683,823.644653 161.967316,823.782349 
	C166.277206,823.800110 167.746353,822.543335 167.741989,818.110107 
	C167.638855,713.643616 167.642044,609.177124 167.729248,504.710663 
	C167.732697,500.578064 166.384872,499.168610 162.271042,499.179688 
	C121.784332,499.288391 81.297195,499.228149 40.810314,499.297699 
	C34.014381,499.309357 30.411942,503.001465 30.069492,509.779846 
	C29.993900,511.276062 30.017790,512.778015 30.017590,514.277283 
	C30.004868,609.080200 29.994282,703.883118 29.984079,798.686035 
	C29.983631,802.851318 29.927517,807.017700 30.003637,811.181641 
	C30.164186,819.964111 33.844318,823.640442 42.505859,823.700806 
	C48.503662,823.742554 54.501961,823.712585 61.500004,823.715271 
M411.499908,823.679138 
	C417.831451,823.688171 424.167389,823.552490 430.493408,823.743896 
	C438.044464,823.972351 444.185455,829.313049 445.275665,836.261658 
	C446.528229,844.245178 443.053162,850.165771 435.393158,853.220215 
	C431.429779,854.800720 427.295227,854.972290 423.112549,854.970459 
	C381.120880,854.952026 339.129211,854.937500 297.137573,854.968201 
	C294.884491,854.969849 292.512756,854.401794 290.051666,855.831604 
	C291.390015,859.468750 294.030731,861.885925 296.973999,864.043762 
	C305.002380,869.929626 314.001404,873.823853 323.473297,876.638428 
	C354.799225,885.947083 386.979645,886.138550 419.093689,884.134521 
	C439.844604,882.839539 460.193329,882.850952 480.621277,887.196228 
	C532.141479,898.155029 582.589050,913.011902 632.898376,928.386963 
	C657.406799,935.877075 681.725952,943.954956 706.013123,952.160645 
	C725.583313,958.772583 744.985291,956.439758 762.029053,943.718262 
	C768.269897,939.060059 773.691406,933.293823 779.420349,927.961914 
	C811.127197,898.452515 842.670532,868.765808 875.068970,840.007874 
	C876.634216,838.618530 878.595215,837.485718 879.462646,834.590027 
	C845.244873,818.015015 812.552856,798.633789 780.720642,778.131653 
	C778.296936,780.198364 777.575745,782.477051 776.519653,784.511963 
	C768.356140,800.242554 759.116821,815.259033 747.049133,828.343628 
	C733.235168,843.321716 717.399658,852.761841 695.761719,848.211426 
	C680.798584,845.064758 665.618774,842.943970 650.528687,840.406982 
	C599.519470,831.831360 548.507141,823.274292 497.495972,814.710327 
	C481.090485,811.956177 464.777679,808.114624 448.257446,806.706726 
	C424.217529,804.657959 400.030945,804.290283 375.900787,803.364502 
	C368.933197,803.097168 364.339905,807.406006 364.317139,813.578796 
	C364.294220,819.778198 368.673889,823.627747 376.006805,823.663879 
	C387.504242,823.720520 399.002197,823.679016 411.499908,823.679138 
M284.309296,735.500000 
	C284.310120,763.162231 284.364929,790.824707 284.248352,818.486450 
	C284.232513,822.241333 285.121063,823.855652 289.257782,823.787964 
	C302.918640,823.564575 316.585999,823.635498 330.249512,823.749817 
	C333.763153,823.779175 334.927307,822.685913 334.453949,819.034729 
	C331.097717,793.147949 352.464142,770.908264 378.317108,772.978210 
	C388.931915,773.828064 399.586639,774.275146 410.232422,774.616577 
	C420.993683,774.961731 421.024170,774.804993 421.026367,764.200073 
	C421.043671,680.380005 421.058777,596.559998 421.050049,512.739929 
	C421.048950,502.301880 417.988403,499.265991 407.731293,499.263855 
	C368.904114,499.255768 330.076904,499.251678 291.249725,499.251434 
	C284.333862,499.251404 284.314331,499.263123 284.313873,506.036133 
	C284.308777,582.190735 284.310089,658.345398 284.309296,735.500000 
M595.864136,185.691528 
	C588.751587,182.368668 581.413879,179.698471 573.741333,177.973343 
	C567.947449,176.670639 567.386292,177.088028 567.324463,182.956360 
	C567.052246,208.807281 568.775513,234.521606 573.459595,259.954285 
	C578.222351,285.814392 585.674194,310.778137 600.041199,333.188660 
	C612.671631,352.890411 629.771790,366.626953 652.791199,372.220123 
	C664.220886,374.997284 675.839722,374.197052 687.519165,374.129517 
	C711.733704,373.989471 731.873840,364.877625 749.418640,349.027008 
	C768.041748,332.202271 781.394287,311.655487 791.107300,288.651398 
	C792.581482,285.159912 794.434509,282.079498 797.904358,280.346924 
	C803.164978,277.720184 807.783142,274.152344 812.349976,270.540710 
	C819.838989,264.618195 826.721069,258.055298 831.396179,249.597473 
	C834.671021,243.672943 836.904663,237.489838 834.618164,230.502762 
	C833.501404,227.090027 831.818298,225.321518 827.880310,225.288315 
	C809.556885,225.133713 791.236877,224.503372 772.913757,224.410156 
	C734.921143,224.216858 696.927246,224.186493 658.934204,224.264893 
	C652.213684,224.278763 646.866333,222.312546 641.900330,217.587570 
	C628.428833,204.769852 613.297302,194.192780 595.864136,185.691528 
M731.900940,148.545105 
	C747.452759,160.307770 760.678955,174.277817 771.479370,190.507782 
	C773.006714,192.803009 774.735962,193.889618 777.524353,194.100433 
	C792.829346,195.257584 808.162415,194.351028 823.470947,194.909103 
	C826.371277,195.014847 827.490173,193.851807 827.826172,190.887222 
	C830.691650,165.605713 831.090210,140.382111 825.560425,115.400505 
	C816.608337,74.958046 793.191650,47.554161 752.823853,35.654060 
	C734.355347,30.209698 715.467041,30.155251 696.420166,30.179626 
	C674.627808,30.207520 655.670288,37.194061 638.601013,50.229340 
	C616.382568,67.196861 601.079285,89.632408 588.277222,114.019409 
	C585.927917,118.494614 583.362061,122.918648 581.918945,128.607239 
	C635.113281,112.151138 685.302185,114.722282 731.900940,148.545105 
M198.393631,586.499939 
	C198.392593,598.992310 198.389282,611.484680 198.390930,623.977051 
	C198.399368,688.437317 198.464813,752.897705 198.311523,817.357605 
	C198.299393,822.460999 199.799637,823.926086 204.827942,823.819397 
	C219.312531,823.512085 233.808548,823.627625 248.298309,823.765259 
	C251.801193,823.798523 253.222107,823.063904 253.216309,819.075134 
	C253.093124,734.460999 252.970032,649.846069 253.240479,565.232605 
	C253.303268,545.585693 253.457413,525.933350 253.532333,506.283569 
	C253.557632,499.649109 253.013565,499.230042 246.429581,499.226624 
	C232.771332,499.219513 219.113083,499.222778 205.454849,499.241882 
	C198.414078,499.251709 198.410797,499.271210 198.409195,506.048859 
	C198.402924,532.532532 198.398941,559.016235 198.393631,586.499939 
M698.883789,500.388550 
	C719.766724,477.278381 740.597168,454.120239 761.594910,431.114838 
	C764.421265,428.018280 765.115173,425.225525 763.853394,421.243286 
	C760.889160,411.887878 758.390137,402.386017 755.590820,392.976776 
	C754.855530,390.505280 754.578003,387.789246 752.857361,385.679779 
	C752.115723,385.896667 751.588257,385.939331 751.184143,386.184906 
	C716.849548,407.052216 679.950806,408.954956 641.770020,400.802704 
	C638.453003,400.094513 637.288147,401.169739 636.252930,403.892426 
	C631.342285,416.808319 626.372253,429.702087 621.323425,442.564514 
	C620.144592,445.567627 619.547791,448.408264 620.106018,451.734497 
	C621.150208,457.956909 621.513306,464.290009 622.345459,470.552399 
	C624.422485,486.183105 625.307312,502.011658 629.360352,517.325623 
	C634.636780,537.262329 640.170898,557.131042 645.657471,577.011536 
	C646.108582,578.645996 646.316345,580.546875 648.122986,581.943298 
	C654.772034,570.203247 660.991028,558.615845 667.783325,547.374878 
	C677.379761,531.493225 684.254333,513.790649 698.883789,500.388550 
M728.165405,513.600159 
	C726.830200,515.405762 724.461853,516.459229 724.064270,519.111755 
	C724.657104,519.531372 725.153809,519.977844 725.727844,520.275391 
	C742.580322,529.012024 759.480164,537.658447 776.268188,546.517029 
	C779.941589,548.455383 781.255676,546.463562 782.883972,543.869446 
	C793.153259,527.509399 803.500244,511.198090 813.804199,494.859680 
	C818.752258,487.013641 823.662170,479.143494 828.439148,471.523834 
	C827.219604,469.422424 825.578491,468.896057 824.145203,468.103210 
	C813.799683,462.380280 803.304199,456.909546 793.161438,450.848114 
	C788.809021,448.247070 786.328186,449.047913 783.154663,452.609375 
	C765.099365,472.871643 746.833984,492.946686 728.165405,513.600159 
M730.047180,188.413025 
	C692.218933,147.361954 639.439514,143.517868 602.970947,155.127365 
	C603.633118,155.584106 604.099243,156.017075 604.648438,156.268341 
	C624.327820,165.272064 641.944702,177.417587 658.230347,191.559326 
	C660.312378,193.367279 662.538330,193.738861 665.112305,193.733704 
	C686.077576,193.691681 707.043152,193.733276 728.008362,193.667465 
	C729.673401,193.662247 731.656372,194.453156 733.222961,192.411057 
	C732.318237,191.244812 731.417542,190.083725 730.047180,188.413025 
M565.617493,533.020996 
	C574.774902,525.029480 583.882446,516.979492 593.124084,509.086639 
	C595.486206,507.069183 595.884888,504.744293 595.556274,501.955750 
	C594.856018,496.013641 594.463684,490.022736 593.474121,484.130951 
	C592.525085,478.480164 592.909729,472.598145 590.703552,466.443787 
	C577.847839,471.307709 565.287231,476.066284 552.720459,480.808716 
	C550.513916,481.641357 550.983032,483.361664 551.310547,484.986237 
	C552.296265,489.874969 553.341858,494.751556 554.352539,499.635315 
	C556.798828,511.456116 559.238403,523.278320 561.656677,534.983948 
	C562.500854,534.983948 562.893311,535.104370 563.119019,534.961487 
	C563.817139,534.519714 564.451721,533.977600 565.617493,533.020996 
z"/>
<path fill="currentColor" opacity="1.000000" stroke="none" 
	d="
M619.099976,713.806885 
	C632.102234,709.511658 641.579346,716.458435 641.217651,729.725098 
	C641.095276,734.214233 640.745605,738.708557 640.257019,743.173889 
	C639.289185,752.018616 631.467529,758.264160 622.775452,757.302551 
	C614.823669,756.422913 609.293213,749.182129 609.885681,740.443848 
	C610.178284,736.128967 610.354736,731.803955 610.751892,727.499084 
	C611.281006,721.762939 613.259338,716.803223 619.099976,713.806885 
z"/>
<path fill="currentColor" opacity="1.000000" stroke="none" 
	d="
M619.724365,658.076782 
	C625.404602,651.316223 632.022522,649.239868 638.411194,651.934631 
	C644.828369,654.641418 648.097046,660.813354 647.455566,669.146423 
	C647.061340,674.268738 647.821350,679.455261 646.351685,684.523621 
	C644.161804,692.075806 637.099060,697.086670 629.849182,696.060242 
	C621.839722,694.926208 616.554626,688.833130 616.740417,680.471130 
	C616.905457,673.041382 616.609741,665.512329 619.724365,658.076782 
z"/>
</svg>