<svg version="1.1" id="Layer_1" xmlns="http://www.w3.org/2000/svg" xmlns:xlink="http://www.w3.org/1999/xlink" x="0px"
    y="0px" width="100%" viewBox="0 0 435 138" enable-background="new 0 0 435 138" xml:space="preserve">
    <path fill="none" opacity="1.000000" stroke="none" d="
M436.000000,89.000000 
	C436.000000,105.644211 436.000000,122.288422 436.000000,139.000000 
	C344.645782,139.000000 253.291550,139.000000 161.145340,138.711792 
	C164.688049,136.326065 169.124527,134.413330 173.336319,132.092773 
	C182.276840,127.166824 189.316757,120.060120 195.470505,112.026047 
	C207.206085,96.704521 215.591965,80.092979 214.979279,60.147995 
	C214.676834,50.302429 211.107544,41.425892 204.073517,34.791206 
	C194.074326,25.359661 181.243011,24.965347 168.444046,26.351002 
	C161.133911,27.142416 154.267746,29.558666 148.105301,33.908035 
	C143.937927,36.849300 143.201675,40.883060 144.247513,45.106354 
	C145.071579,48.434139 147.123825,51.370975 151.566360,51.067390 
	C156.352371,50.740341 161.162354,50.604794 165.959518,50.648003 
	C170.223740,50.686405 174.481888,51.748203 175.601028,56.433857 
	C176.609085,60.654404 173.114822,62.842697 169.878021,64.533195 
	C168.340225,65.336349 166.493668,65.566399 164.772095,65.996506 
	C156.711670,68.010269 151.755722,68.742882 151.853363,80.850876 
	C151.924576,89.685341 150.939423,98.565262 149.864029,107.356270 
	C149.334641,111.683853 146.139908,115.132851 141.776764,115.351608 
	C138.816574,115.500031 134.559891,114.199112 132.975601,112.022934 
	C130.150452,108.142303 128.215988,103.267380 127.132088,98.528496 
	C123.585098,83.020927 121.047516,67.273087 117.203270,51.846527 
	C115.004585,43.023464 114.586433,35.005772 121.431656,28.435076 
	C128.625504,21.529743 137.818008,18.040451 147.436279,16.091066 
	C154.610519,14.637029 161.980820,14.168955 169.191589,12.863050 
	C170.935104,12.547293 172.393341,10.656464 173.982773,9.489927 
	C172.785141,7.932990 171.863770,5.959998 170.315125,4.931700 
	C168.639481,3.819077 166.333801,3.697611 164.398499,2.909220 
	C163.776321,2.655764 163.457565,1.657512 163.000000,0.999999 
	C253.876984,1.000000 344.753967,1.000000 436.000000,1.000000 
	C436.000000,17.685747 436.000000,34.374214 435.622253,51.642548 
	C426.619537,47.581615 422.014282,50.302025 422.000397,60.055359 
	C421.990692,66.880920 422.054626,73.707161 421.975769,80.531837 
	C421.922791,85.116112 418.631989,88.128593 414.060730,87.993477 
	C408.851410,87.839500 406.143890,84.881447 406.034271,78.787582 
	C405.902557,71.464882 406.119171,64.135010 405.933990,56.814587 
	C405.851807,53.565792 404.840729,50.487656 400.859161,50.039734 
	C396.772369,49.579979 393.322083,50.740269 393.034393,55.414906 
	C392.507141,63.982319 392.232391,72.575974 392.230957,81.158745 
	C392.230499,83.852692 393.047028,86.727432 394.176208,89.206734 
	C397.457184,96.410675 403.669220,99.612259 411.221527,99.920479 
	C419.958313,100.277046 428.491333,99.556587 433.687775,90.812523 
	C434.154266,90.027534 435.215149,89.595787 436.000000,89.000000 
M303.883575,79.628433 
	C307.607513,87.935379 312.013153,96.181877 305.875122,105.268753 
	C305.233063,106.219307 304.659943,107.267456 304.304413,108.352142 
	C302.231934,114.674904 306.209900,119.578339 312.350647,117.760170 
	C314.488647,117.127151 316.742004,114.647720 317.656464,112.471130 
	C325.156891,94.619560 332.405518,76.661148 339.602173,58.683769 
	C341.190277,54.716705 338.318054,50.558662 334.059387,50.020325 
	C328.548706,49.323704 326.598450,52.917862 325.018127,57.229073 
	C322.653168,63.680901 320.104370,70.065338 317.180664,77.654625 
	C314.098358,69.149918 311.513916,61.933285 308.863953,54.740776 
	C307.389771,50.739594 303.272888,48.921280 299.214630,50.375671 
	C295.262207,51.792126 294.101440,55.140190 295.918274,59.721672 
	C298.458252,66.126671 300.962280,72.545921 303.883575,79.628433 
M372.921387,84.045067 
	C370.754517,87.754494 367.386749,88.713623 363.523376,87.671143 
	C359.335022,86.540970 358.116211,83.048775 358.046997,79.204872 
	C357.912048,71.710602 358.013214,64.212318 357.981293,56.715843 
	C357.965759,53.068481 356.119568,50.742020 352.551819,50.096989 
	C348.754059,49.410374 346.113464,50.992443 344.980499,54.757744 
	C344.559631,56.156410 344.062805,57.606270 344.042847,59.038940 
	C343.945343,66.034424 343.796448,73.040421 344.089142,80.024948 
	C344.216888,83.074280 344.903046,86.279541 346.121887,89.070602 
	C349.962433,97.864975 361.262970,102.382927 371.962860,99.529587 
	C383.624817,96.419693 386.657227,93.232094 387.786255,83.352013 
	C388.782227,74.636459 388.081909,65.715950 387.960114,56.888298 
	C387.895844,52.226841 384.227051,49.226078 379.700165,50.079182 
	C375.754181,50.822803 374.057037,53.484840 373.973938,57.470638 
	C373.794769,66.067299 373.465118,74.660835 372.921387,84.045067 
M267.477966,50.963650 
	C265.772552,50.458443 264.067108,49.953232 262.303406,49.430763 
	C261.732758,45.010921 260.971283,40.866634 267.587738,40.754391 
	C268.735321,40.734917 270.750458,38.430939 270.770294,37.157303 
	C270.805084,34.924847 270.288483,31.489399 268.805054,30.633240 
	C262.176483,26.807480 252.166794,29.517962 250.129654,35.089390 
	C248.476562,39.610474 248.030197,44.572788 246.987442,49.636688 
	C243.915283,50.679859 239.455688,50.948769 239.041107,56.133224 
	C238.535538,62.455482 244.104691,62.243847 248.003479,63.773785 
	C248.003479,73.525810 247.962555,83.010910 248.021149,92.495399 
	C248.049500,97.085945 250.218246,99.079460 254.794647,98.992973 
	C259.648499,98.901245 261.899536,96.212357 261.985504,89.861603 
	C262.104462,81.069023 262.015320,72.273628 262.015320,63.968571 
	C265.576233,61.483692 271.151642,63.656456 271.916077,58.037224 
	C272.321198,55.059219 272.424805,51.850163 267.477966,50.963650 
M277.005829,56.987171 
	C277.004883,68.799065 277.049774,80.611237 276.976196,92.422676 
	C276.952972,96.150696 278.542053,98.495255 282.230072,98.931343 
	C285.906647,99.366081 289.396118,98.863945 290.005554,94.214653 
	C290.495728,90.475060 290.988678,86.692520 290.946350,82.935059 
	C290.845734,74.009956 290.487122,65.085953 290.111542,56.166607 
	C289.949554,52.319839 287.962402,50.199211 283.886505,49.959049 
	C279.367615,49.692780 277.753418,52.312855 277.005829,56.987171 
M283.577728,45.990658 
	C288.948273,45.311283 291.543274,42.195198 290.976898,37.105648 
	C290.473267,32.580387 287.241455,30.356489 282.028168,31.034498 
	C278.460999,31.498428 276.412445,33.784256 276.086395,37.164074 
	C275.624176,41.955772 278.015808,44.958160 283.577728,45.990658 
z" />
    <path fill="currentColor" opacity="1.000000" stroke="none" d="
M162.531342,0.999999 
	C163.457565,1.657512 163.776321,2.655764 164.398499,2.909220 
	C166.333801,3.697611 168.639481,3.819077 170.315125,4.931700 
	C171.863770,5.959998 172.785141,7.932990 173.982773,9.489927 
	C172.393341,10.656464 170.935104,12.547293 169.191589,12.863050 
	C161.980820,14.168955 154.610519,14.637029 147.436279,16.091066 
	C137.818008,18.040451 128.625504,21.529743 121.431656,28.435076 
	C114.586433,35.005772 115.004585,43.023464 117.203270,51.846527 
	C121.047516,67.273087 123.585098,83.020927 127.132088,98.528496 
	C128.215988,103.267380 130.150452,108.142303 132.975601,112.022934 
	C134.559891,114.199112 138.816574,115.500031 141.776764,115.351608 
	C146.139908,115.132851 149.334641,111.683853 149.864029,107.356270 
	C150.939423,98.565262 151.924576,89.685341 151.853363,80.850876 
	C151.755722,68.742882 156.711670,68.010269 164.772095,65.996506 
	C166.493668,65.566399 168.340225,65.336349 169.878021,64.533195 
	C173.114822,62.842697 176.609085,60.654404 175.601028,56.433857 
	C174.481888,51.748203 170.223740,50.686405 165.959518,50.648003 
	C161.162354,50.604794 156.352371,50.740341 151.566360,51.067390 
	C147.123825,51.370975 145.071579,48.434139 144.247513,45.106354 
	C143.201675,40.883060 143.937927,36.849300 148.105301,33.908035 
	C154.267746,29.558666 161.133911,27.142416 168.444046,26.351002 
	C181.243011,24.965347 194.074326,25.359661 204.073517,34.791206 
	C211.107544,41.425892 214.676834,50.302429 214.979279,60.147995 
	C215.591965,80.092979 207.206085,96.704521 195.470505,112.026047 
	C189.316757,120.060120 182.276840,127.166824 173.336319,132.092773 
	C169.124527,134.413330 164.688049,136.326065 160.676682,138.711792 
	C151.312439,139.000000 141.624878,139.000000 131.797073,138.699066 
	C126.749008,136.543747 121.841187,134.689377 116.866165,132.506531 
	C115.337677,131.145279 113.936882,130.011414 112.405754,129.095383 
	C97.201897,119.999374 83.879883,108.803383 74.052147,93.913338 
	C57.431374,68.731110 61.161373,42.423523 84.272514,23.020010 
	C90.101990,18.125734 96.767815,14.227613 103.400055,9.791685 
	C110.222313,7.471510 116.708145,5.270892 123.146118,2.938184 
	C123.899284,2.665286 124.388451,1.663750 125.000000,1.000002 
	C137.354233,1.000000 149.708450,1.000000 162.531342,0.999999 
z" />
    <path fill="none" opacity="1.000000" stroke="none" d="
M124.531342,1.000002 
	C124.388451,1.663750 123.899284,2.665286 123.146118,2.938184 
	C116.708145,5.270892 110.222313,7.471510 103.190018,9.521664 
	C91.028893,12.747766 79.448547,16.234089 67.819061,19.547928 
	C62.628944,21.026857 57.300999,22.028076 52.131577,23.568222 
	C51.191624,23.848263 50.126377,25.723108 50.190075,26.798275 
	C50.255760,27.907093 51.412731,29.361223 52.479683,29.907303 
	C54.197334,30.786423 56.380733,30.753736 58.101513,31.628960 
	C61.014778,33.110706 66.136208,35.121140 66.057381,36.695400 
	C65.827866,41.278996 60.870541,41.439384 57.238369,41.929958 
	C50.393196,42.854492 43.459438,43.142185 36.630325,44.152874 
	C34.969925,44.398605 33.572918,46.424019 32.054802,47.631119 
	C33.232052,49.006687 34.160076,50.865139 35.650311,51.634281 
	C37.469402,52.573143 39.792259,52.482044 41.840015,53.044685 
	C44.731888,53.839249 48.625595,53.674316 48.872288,57.892979 
	C49.105576,61.882488 45.572083,62.745632 42.715698,63.937744 
	C41.661358,64.377769 40.540222,64.822464 39.420441,64.915787 
	C26.616879,65.982849 13.807689,66.982422 1.000000,68.000000 
	C1.000000,45.717934 1.000000,23.435865 1.000000,1.000000 
	C42.020775,1.000000 83.041725,1.000000 124.531342,1.000002 
M30.039770,25.718870 
	C29.459515,30.549627 33.323597,30.502115 36.203430,30.897112 
	C41.656017,31.644983 45.912048,29.209047 47.472031,25.017815 
	C41.688766,20.250774 34.137932,20.206095 30.039770,25.718870 
z" />
    <path fill="none" opacity="1.000000" stroke="none" d="
M116.933365,132.835007 
	C121.841187,134.689377 126.749008,136.543747 131.328415,138.699066 
	C87.764603,139.000000 44.529202,139.000000 1.000000,139.000000 
	C1.000000,117.980019 1.000000,96.958664 1.443190,75.381966 
	C13.265254,75.553467 24.673340,75.984764 36.013283,77.105507 
	C44.314735,77.925957 52.934479,78.667038 59.934540,83.783409 
	C62.592564,85.726181 65.707413,89.548538 65.471550,92.238693 
	C65.237633,94.906677 61.127628,97.315437 58.546303,99.648338 
	C57.762581,100.356636 56.435658,100.584373 55.313663,100.777992 
	C48.835236,101.895920 42.355076,103.015213 35.851757,103.972801 
	C32.562519,104.457115 29.756645,105.300087 28.785465,110.025681 
	C32.391151,110.704613 35.816082,111.761848 39.283405,111.926529 
	C50.545120,112.461403 61.833435,112.477859 73.086418,113.128128 
	C76.184822,113.307175 79.195595,115.002686 82.246582,116.002365 
	C82.191261,116.914978 82.135948,117.827583 82.080627,118.740189 
	C76.919312,119.828842 71.726547,120.790138 66.608528,122.054092 
	C63.559326,122.807137 60.627560,124.035667 57.642998,125.050438 
	C57.723927,125.925934 57.804855,126.801422 57.885788,127.676918 
	C61.742065,128.452728 65.573875,129.718628 69.459206,129.912628 
	C81.220314,130.499939 93.007744,130.547241 104.772903,131.073502 
	C108.844513,131.255615 112.880890,132.225143 116.933365,132.835007 
M35.183762,88.386101 
	C33.473557,90.053482 31.763348,91.720863 30.053141,93.388252 
	C32.002476,94.895409 33.882195,97.526970 35.917042,97.652939 
	C39.178200,97.854851 42.606804,96.590027 45.820450,95.514359 
	C46.704365,95.218506 47.752441,93.213173 47.514637,92.311539 
	C47.203102,91.130341 45.842419,89.689888 44.664795,89.379921 
	C41.843540,88.637306 38.865505,88.490326 35.183762,88.386101 
M21.728592,110.719353 
	C17.554749,108.913994 13.379630,108.005692 8.429179,111.200325 
	C9.714608,112.231644 10.915871,113.942307 11.841650,113.804344 
	C15.215442,113.301567 19.486340,116.271889 21.728592,110.719353 
z" />
    <path fill="currentColor" opacity="1.000000" stroke="none" d="
M116.866165,132.506531 
	C112.880890,132.225143 108.844513,131.255615 104.772903,131.073502 
	C93.007744,130.547241 81.220314,130.499939 69.459206,129.912628 
	C65.573875,129.718628 61.742065,128.452728 57.885788,127.676918 
	C57.804855,126.801422 57.723927,125.925934 57.642998,125.050438 
	C60.627560,124.035667 63.559326,122.807137 66.608528,122.054092 
	C71.726547,120.790138 76.919312,119.828842 82.080627,118.740189 
	C82.135948,117.827583 82.191261,116.914978 82.246582,116.002365 
	C79.195595,115.002686 76.184822,113.307175 73.086418,113.128128 
	C61.833435,112.477859 50.545120,112.461403 39.283405,111.926529 
	C35.816082,111.761848 32.391151,110.704613 28.785465,110.025681 
	C29.756645,105.300087 32.562519,104.457115 35.851757,103.972801 
	C42.355076,103.015213 48.835236,101.895920 55.313663,100.777992 
	C56.435658,100.584373 57.762581,100.356636 58.546303,99.648338 
	C61.127628,97.315437 65.237633,94.906677 65.471550,92.238693 
	C65.707413,89.548538 62.592564,85.726181 59.934540,83.783409 
	C52.934479,78.667038 44.314735,77.925957 36.013283,77.105507 
	C24.673340,75.984764 13.265254,75.553467 1.443190,74.913307 
	C1.000000,72.958336 1.000000,70.916664 1.000000,68.437500 
	C13.807689,66.982422 26.616879,65.982849 39.420441,64.915787 
	C40.540222,64.822464 41.661358,64.377769 42.715698,63.937744 
	C45.572083,62.745632 49.105576,61.882488 48.872288,57.892979 
	C48.625595,53.674316 44.731888,53.839249 41.840015,53.044685 
	C39.792259,52.482044 37.469402,52.573143 35.650311,51.634281 
	C34.160076,50.865139 33.232052,49.006687 32.054802,47.631119 
	C33.572918,46.424019 34.969925,44.398605 36.630325,44.152874 
	C43.459438,43.142185 50.393196,42.854492 57.238369,41.929958 
	C60.870541,41.439384 65.827866,41.278996 66.057381,36.695400 
	C66.136208,35.121140 61.014778,33.110706 58.101513,31.628960 
	C56.380733,30.753736 54.197334,30.786423 52.479683,29.907303 
	C51.412731,29.361223 50.255760,27.907093 50.190075,26.798275 
	C50.126377,25.723108 51.191624,23.848263 52.131577,23.568222 
	C57.300999,22.028076 62.628944,21.026857 67.819061,19.547928 
	C79.448547,16.234089 91.028893,12.747766 102.839272,9.601702 
	C96.767815,14.227613 90.101990,18.125734 84.272514,23.020010 
	C61.161373,42.423523 57.431374,68.731110 74.052147,93.913338 
	C83.879883,108.803383 97.201897,119.999374 112.405754,129.095383 
	C113.936882,130.011414 115.337677,131.145279 116.866165,132.506531 
z" />
    <path fill="currentColor" opacity="1.000000" stroke="none" d="
M436.000000,88.531342 
	C435.215149,89.595787 434.154266,90.027534 433.687775,90.812523 
	C428.491333,99.556587 419.958313,100.277046 411.221527,99.920479 
	C403.669220,99.612259 397.457184,96.410675 394.176208,89.206734 
	C393.047028,86.727432 392.230499,83.852692 392.230957,81.158745 
	C392.232391,72.575974 392.507141,63.982319 393.034393,55.414906 
	C393.322083,50.740269 396.772369,49.579979 400.859161,50.039734 
	C404.840729,50.487656 405.851807,53.565792 405.933990,56.814587 
	C406.119171,64.135010 405.902557,71.464882 406.034271,78.787582 
	C406.143890,84.881447 408.851410,87.839500 414.060730,87.993477 
	C418.631989,88.128593 421.922791,85.116112 421.975769,80.531837 
	C422.054626,73.707161 421.990692,66.880920 422.000397,60.055359 
	C422.014282,50.302025 426.619537,47.581615 435.622253,52.111206 
	C436.000000,64.020897 436.000000,76.041786 436.000000,88.531342 
z" />
    <path fill="currentColor" opacity="1.000000" stroke="none" d="
M303.682617,79.293755 
	C300.962280,72.545921 298.458252,66.126671 295.918274,59.721672 
	C294.101440,55.140190 295.262207,51.792126 299.214630,50.375671 
	C303.272888,48.921280 307.389771,50.739594 308.863953,54.740776 
	C311.513916,61.933285 314.098358,69.149918 317.180664,77.654625 
	C320.104370,70.065338 322.653168,63.680901 325.018127,57.229073 
	C326.598450,52.917862 328.548706,49.323704 334.059387,50.020325 
	C338.318054,50.558662 341.190277,54.716705 339.602173,58.683769 
	C332.405518,76.661148 325.156891,94.619560 317.656464,112.471130 
	C316.742004,114.647720 314.488647,117.127151 312.350647,117.760170 
	C306.209900,119.578339 302.231934,114.674904 304.304413,108.352142 
	C304.659943,107.267456 305.233063,106.219307 305.875122,105.268753 
	C312.013153,96.181877 307.607513,87.935379 303.682617,79.293755 
z" />
    <path fill="currentColor" opacity="1.000000" stroke="none" d="
M373.059204,83.650360 
	C373.465118,74.660835 373.794769,66.067299 373.973938,57.470638 
	C374.057037,53.484840 375.754181,50.822803 379.700165,50.079182 
	C384.227051,49.226078 387.895844,52.226841 387.960114,56.888298 
	C388.081909,65.715950 388.782227,74.636459 387.786255,83.352013 
	C386.657227,93.232094 383.624817,96.419693 371.962860,99.529587 
	C361.262970,102.382927 349.962433,97.864975 346.121887,89.070602 
	C344.903046,86.279541 344.216888,83.074280 344.089142,80.024948 
	C343.796448,73.040421 343.945343,66.034424 344.042847,59.038940 
	C344.062805,57.606270 344.559631,56.156410 344.980499,54.757744 
	C346.113464,50.992443 348.754059,49.410374 352.551819,50.096989 
	C356.119568,50.742020 357.965759,53.068481 357.981293,56.715843 
	C358.013214,64.212318 357.912048,71.710602 358.046997,79.204872 
	C358.116211,83.048775 359.335022,86.540970 363.523376,87.671143 
	C367.386749,88.713623 370.754517,87.754494 373.059204,83.650360 
z" />
    <path fill="currentColor" opacity="1.000000" stroke="none" d="
M267.891724,50.992859 
	C272.424805,51.850163 272.321198,55.059219 271.916077,58.037224 
	C271.151642,63.656456 265.576233,61.483692 262.015320,63.968571 
	C262.015320,72.273628 262.104462,81.069023 261.985504,89.861603 
	C261.899536,96.212357 259.648499,98.901245 254.794647,98.992973 
	C250.218246,99.079460 248.049500,97.085945 248.021149,92.495399 
	C247.962555,83.010910 248.003479,73.525810 248.003479,63.773785 
	C244.104691,62.243847 238.535538,62.455482 239.041107,56.133224 
	C239.455688,50.948769 243.915283,50.679859 246.987442,49.636688 
	C248.030197,44.572788 248.476562,39.610474 250.129654,35.089390 
	C252.166794,29.517962 262.176483,26.807480 268.805054,30.633240 
	C270.288483,31.489399 270.805084,34.924847 270.770294,37.157303 
	C270.750458,38.430939 268.735321,40.734917 267.587738,40.754391 
	C260.971283,40.866634 261.732758,45.010921 262.303406,49.430763 
	C264.067108,49.953232 265.772552,50.458443 267.891724,50.992859 
z" />
    <path fill="currentColor" opacity="1.000000" stroke="none" d="
M277.013672,56.541382 
	C277.753418,52.312855 279.367615,49.692780 283.886505,49.959049 
	C287.962402,50.199211 289.949554,52.319839 290.111542,56.166607 
	C290.487122,65.085953 290.845734,74.009956 290.946350,82.935059 
	C290.988678,86.692520 290.495728,90.475060 290.005554,94.214653 
	C289.396118,98.863945 285.906647,99.366081 282.230072,98.931343 
	C278.542053,98.495255 276.952972,96.150696 276.976196,92.422676 
	C277.049774,80.611237 277.004883,68.799065 277.013672,56.541382 
z" />
    <path fill="currentColor" opacity="1.000000" stroke="none" d="
M283.178101,45.981178 
	C278.015808,44.958160 275.624176,41.955772 276.086395,37.164074 
	C276.412445,33.784256 278.460999,31.498428 282.028168,31.034498 
	C287.241455,30.356489 290.473267,32.580387 290.976898,37.105648 
	C291.543274,42.195198 288.948273,45.311283 283.178101,45.981178 
z" />
    <path fill="currentColor" opacity="1.000000" stroke="none" d="
M30.084545,25.317032 
	C34.137932,20.206095 41.688766,20.250774 47.472031,25.017815 
	C45.912048,29.209047 41.656017,31.644983 36.203430,30.897112 
	C33.323597,30.502115 29.459515,30.549627 30.084545,25.317032 
z" />
    <path fill="currentColor" opacity="1.000000" stroke="none" d="
M35.567253,88.244507 
	C38.865505,88.490326 41.843540,88.637306 44.664795,89.379921 
	C45.842419,89.689888 47.203102,91.130341 47.514637,92.311539 
	C47.752441,93.213173 46.704365,95.218506 45.820450,95.514359 
	C42.606804,96.590027 39.178200,97.854851 35.917042,97.652939 
	C33.882195,97.526970 32.002476,94.895409 30.053141,93.388252 
	C31.763348,91.720863 33.473557,90.053482 35.567253,88.244507 
z" />
    <path fill="currentColor" opacity="1.000000" stroke="none" d="
M21.800472,111.127876 
	C19.486340,116.271889 15.215442,113.301567 11.841650,113.804344 
	C10.915871,113.942307 9.714608,112.231644 8.429179,111.200325 
	C13.379630,108.005692 17.554749,108.913994 21.800472,111.127876 
z" />
</svg>