<?xml version="1.0" encoding="utf-8"?>
<svg xmlns="http://www.w3.org/2000/svg" viewBox="15 15 170 95" width="200" height="200"
	preserveAspectRatio="xMidYMid meet">
	<style>
		.st0,
		.st1 {
			fill: currentColor;
		}
	</style>

	<!-- LOGO ONLY (text removed) -->
	<g>
		<path class="st0" d="M51.1,33.4c0-2.5-12.1-4.2-12.1,0.6C39,38.6,51.1,37,51.1,33.4z" />
		<path class="st0" d="M35.9,92.1c0-1.8-8.9-3.1-8.9,0.4C27,95.9,35.9,94.8,35.9,92.1z" />
		<path class="st0" d="M51.1,80.1c0-2.2-10.6-3.6-10.6,0.5C40.5,84.5,51.1,83.2,51.1,80.1z" />

		<path class="st0" d="M91.4,21.6C76.9,29.1,56.8,30,55,32.7c-1.8,2.7,1.2,3.3,5.1,4.2c5.3,1.2,7.4,3.3,5.9,5.8
      C64,46,54,46,45.2,46.6c-3.5,0.3-5.2,4.1-0.3,5.1c5,1,10.2,1.4,9.3,5.5c-1.3,5.7-14.5,5.1-31,6.3c-3.9,0.3-4.6,4.3-0.4,4.8
      c10.8,1.2,39.7-0.4,42.8,10.7c2.4,8.5-13.1,9.4-22.1,10.9c-5,0.8-4.9,4.5,1.5,4.5c18.8,0,30.5,0.2,32.1,3.5c1.5,3-6.3,4-11.7,4.8
      c-6.9,1-6,4.2,0.2,4.5c10.3,0.5,32.1,0.2,45.6,4.2C61.8,73.3,91.4,21.6,91.4,21.6z" />

		<path class="st1" d="M134.5,23.3c-20.7,1-38.8,10.1-34.4,24.7s6.3,30.1,7.7,38.3c2.2,13.1,14.2,13,16.2,3.4
      c4.2-20.5-4.1-26.1,10.5-28.4c9.6-1.5,9.7-13-1.9-11.6c-5.6,0.7-11.3,2.2-13-4.2c-2.3-8.8,17.6-15.8,32.4-11.3
      c12.1,3.6,23.3,20.7,9.5,47.8c-13.3,26.1-39.6,45-74.3,16.2S60.4,37.7,90.6,22c13.4-7,28.9-8.9,43.6-5.3
      C143.1,18.9,140.6,23,134.5,23.3z" />
	</g>
</svg>