<svg width="100%" height="100%" viewBox="12 15 50 50" fill="none" xmlns="http://www.w3.org/2000/svg">
    <path fill-rule="evenodd" clip-rule="evenodd"
        d="M38.665 55.3969C41.1065 57.0855 44.2035 58.0901 47.557 58.0901C48.3914 58.0901 49.214 58.0292 50.0246 57.9072C50.3025 58.0212 50.5709 58.1614 50.901 58.3514C51.6135 58.7694 52.5635 59.4106 53.751 60.2751C54.7224 60.9853 56.0975 60.2989 56.0975 59.1042V55.6344C56.5963 55.3114 57.0673 54.9615 57.5106 54.5846C60.1944 52.3094 61.75 49.1981 61.75 45.8613C61.75 43.6644 61.085 41.61 59.9165 39.8359C59.547 41.0953 59.0479 42.3131 58.4274 43.4696C58.676 44.2375 58.8018 45.0348 58.805 45.8613C58.805 48.317 57.646 50.635 55.594 52.3735C55.0644 52.8205 54.4943 53.2173 53.8911 53.5586C53.6673 53.6845 53.4809 53.8676 53.3511 54.0892C53.2213 54.3108 53.1528 54.5629 53.1525 54.8198V56.3018C51.7441 55.3993 50.7775 54.9741 50.0413 54.9741C49.9586 54.9769 49.8762 54.9841 49.7943 54.9955C47.7308 55.3402 45.6156 55.202 43.6145 54.5918C41.9937 55.012 40.3377 55.2823 38.6674 55.3993L38.665 55.3969ZM20.9333 48.4571C21.7151 49.1215 22.5437 49.7287 23.4128 50.274V56.1925C23.4128 57.6887 25.1346 58.5437 26.3482 57.6555C29.697 55.2092 32.0245 53.827 32.6064 53.6893C33.9522 53.903 35.3202 54.0099 36.7104 54.0099C49.0604 54.0099 59.1731 45.4432 59.1731 34.7249C59.1731 24.0041 49.058 15.4375 36.7104 15.4375C24.3627 15.4375 14.25 24.0041 14.25 34.7225C14.25 39.9713 16.6963 44.8661 20.9333 48.4571ZM32.6871 50.0389C31.4925 50.0389 29.7469 50.882 27.0964 52.6609V49.248C27.094 48.927 27.0071 48.6122 26.8445 48.3354C26.682 48.0586 26.4494 47.8294 26.1701 47.671C25.1651 47.0993 24.2143 46.4371 23.3296 45.6926C19.8787 42.7738 17.9313 38.8693 17.9313 34.7225C17.9313 26.1488 26.2817 19.076 36.7104 19.076C47.1414 19.076 55.4895 26.1488 55.4895 34.7225C55.4895 43.2963 47.1414 50.3714 36.7104 50.3714C35.45 50.3714 34.2119 50.2685 32.9959 50.0626C32.8936 50.048 32.7904 50.0401 32.6871 50.0389ZM27.1368 38.3634C28.7636 38.3634 30.0818 37.0571 30.0818 35.4516C30.0818 33.8438 28.7636 32.5399 27.1368 32.5399C25.5099 32.5399 24.1917 33.8438 24.1917 35.4516C24.1917 37.0595 25.5099 38.3634 27.1368 38.3634ZM36.7104 38.3634C38.3372 38.3634 39.6554 37.0571 39.6554 35.4516C39.6554 33.8438 38.3372 32.5399 36.7104 32.5399C35.0835 32.5399 33.7654 33.8438 33.7654 35.4516C33.7654 37.0595 35.0835 38.3634 36.7104 38.3634ZM46.284 38.3634C47.9109 38.3634 49.229 37.0571 49.229 35.4516C49.229 33.8438 47.9109 32.5399 46.284 32.5399C44.6571 32.5399 43.339 33.8438 43.339 35.4516C43.339 37.0595 44.6571 38.3634 46.284 38.3634Z"
        fill="currentColor" />
</svg>