<svg width="24" height="24" viewBox="0 0 24 24" fill="none" xmlns="http://www.w3.org/2000/svg">
    <path
        d="M4 13.375H4.443H4.444C4.786 13.375 5.127 13.25 5.388 13V13V13C5.909 12.5 6.755 12.5 7.276 13V13V13C7.797 13.5 8.643 13.5 9.164 13V13V13C9.685 12.5 10.531 12.5 11.052 13V13V13C11.573 13.5 12.419 13.5 12.94 13V13V13C13.461 12.5 14.307 12.5 14.828 13V13V13C15.349 13.5 16.195 13.5 16.716 13V13V13C17.237 12.5 18.083 12.5 18.604 13V13V13C18.865 13.25 19.206 13.375 19.548 13.375H19.992"
        stroke="currentColor" stroke-width="1.5" stroke-linecap="round" stroke-linejoin="round" />
    <path
        d="M12.0361 10H5.63315C5.25315 10 4.88815 9.849 4.61915 9.58V9.58C3.77615 8.737 3.85315 7.349 4.78315 6.604L4.92715 6.489C6.93915 4.878 9.44015 4 12.0171 4V4V4C14.5941 4 17.0941 4.878 19.1061 6.489L19.2501 6.604C20.1801 7.349 20.2571 8.737 19.4141 9.58V9.58C19.1451 9.849 18.7811 10 18.4001 10H11.9971"
        stroke="currentColor" stroke-width="1.5" stroke-linecap="round" stroke-linejoin="round" />
    <path fill-rule="evenodd" clip-rule="evenodd"
        d="M4 17V17C4 16.448 4.448 16 5 16H18.995C19.547 16 19.995 16.448 19.995 17V17C19.995 17.657 19.842 18.306 19.548 18.894V18.894C19.208 19.572 18.516 20 17.759 20H6.235C5.478 20 4.786 19.572 4.447 18.895V18.895C4.153 18.306 4 17.658 4 17Z"
        stroke="currentColor" stroke-width="1.5" stroke-linecap="round" stroke-linejoin="round" />
</svg>