<svg width="24" height="24" viewBox="0 0 24 24" fill="none" xmlns="http://www.w3.org/2000/svg">
    <path d="M15.0012 2.99622V4.99705" stroke="currentColor" stroke-width="1.5" stroke-linecap="round"
        stroke-linejoin="round" />
    <path d="M6.99826 2.99622V4.99705" stroke="currentColor" stroke-width="1.5" stroke-linecap="round"
        stroke-linejoin="round" />
    <path d="M2.99609 8.99874H19.0028" stroke="currentColor" stroke-width="1.5" stroke-linecap="round"
        stroke-linejoin="round" />
    <path
        d="M19.0028 9.9992V6.99795C19.0028 5.34041 17.6591 3.9967 16.0015 3.9967H5.99734C4.3398 3.9967 2.99609 5.34041 2.99609 6.99795V16.0017C2.99609 17.6592 4.3398 19.003 5.99734 19.003H8.99859"
        stroke="currentColor" stroke-width="1.5" stroke-linecap="round" stroke-linejoin="round" />
    <path fill-rule="evenodd" clip-rule="evenodd"
        d="M13.2865 13.0004H19.7172C20.0584 13.0004 20.3857 13.1359 20.6269 13.3772C20.8682 13.6185 21.0037 13.9457 21.0037 14.2869V20.0033C21.0037 20.3445 20.8682 20.6717 20.6269 20.913C20.3857 21.1543 20.0584 21.2898 19.7172 21.2898H13.2865C12.9453 21.2898 12.6181 21.1543 12.3768 20.913C12.1355 20.6717 12 20.3445 12 20.0033V14.2869C12 13.5764 12.576 13.0004 13.2865 13.0004Z"
        stroke="currentColor" stroke-width="1.5" stroke-linecap="round" stroke-linejoin="round" />
    <path d="M17.5028 16.0017H15.502" stroke="currentColor" stroke-width="1.5" stroke-linecap="round"
        stroke-linejoin="round" />
</svg>