<svg width="24" height="24" viewBox="0 0 24 24" fill="none" xmlns="http://www.w3.org/2000/svg">
    <path fill-rule="evenodd" clip-rule="evenodd"
        d="M17 21H7C6.448 21 6 20.552 6 20V11C6 10.448 6.448 10 7 10H17C17.552 10 18 10.448 18 11V20C18 20.552 17.552 21 17 21Z"
        stroke="currentColor" stroke-width="1.5" stroke-linecap="round" stroke-linejoin="round" />
    <path d="M17 10L14.159 12.841C13.485 13.515 12.429 13.62 11.635 13.091L7 10" stroke="currentColor"
        stroke-width="1.5" stroke-linecap="round" stroke-linejoin="round" />
    <path d="M7 10V4C7 3.448 7.448 3 8 3H16C16.552 3 17 3.448 17 4V10" stroke="currentColor" stroke-width="1.5"
        stroke-linecap="round" stroke-linejoin="round" />
    <path d="M9 18V16" stroke="currentColor" stroke-width="1.5" stroke-linecap="round" stroke-linejoin="round" />
</svg>