<svg width="24" height="24" viewBox="0 0 24 24" fill="none" xmlns="http://www.w3.org/2000/svg">
    <path
        d="M18.5025 8.99878L17.294 19.2375C17.1751 20.2448 16.3212 21.0038 15.3069 21.0038H8.69366C7.67944 21.0038 6.82564 20.2449 6.70665 19.2377L5.49707 8.99878"
        stroke="currentColor" stroke-width="1.5" stroke-linecap="round" stroke-linejoin="round" />
    <path fill-rule="evenodd" clip-rule="evenodd"
        d="M15.6115 2.99622H8.38779C7.49464 2.99622 6.70966 3.58817 6.46408 4.44689L6.16372 5.49726H5.49718C5.06649 5.49724 4.68413 5.7729 4.54806 6.18154L4.04834 7.68217C3.94673 7.98723 3.99795 8.32254 4.18599 8.58336C4.37404 8.84418 4.67598 8.99872 4.99753 8.99872H19.0018C19.3233 8.99872 19.6253 8.84418 19.8133 8.58336C20.0014 8.32254 20.0526 7.98723 19.951 7.68217L19.4512 6.18154C19.3152 5.7729 18.9328 5.49724 18.5021 5.49726H17.8356L17.5352 4.44689C17.2896 3.58816 16.5047 2.99622 15.6115 2.99622Z"
        stroke="currentColor" stroke-width="1.5" stroke-linecap="round" stroke-linejoin="round" />
</svg>