<svg width="24" height="24" viewBox="0 0 24 24" fill="none" xmlns="http://www.w3.org/2000/svg">
    <path fill-rule="evenodd" clip-rule="evenodd"
        d="M3.99651 10.4994H16.0015C16.554 10.4994 17.0019 10.9473 17.0019 11.4998V14.5011C17.0019 17.8161 14.3145 20.5036 10.9994 20.5036H8.99859C5.6835 20.5036 2.99609 17.8161 2.99609 14.5011V11.4998C2.99609 10.9473 3.444 10.4994 3.99651 10.4994Z"
        stroke="currentColor" stroke-width="1.5" stroke-linecap="round" stroke-linejoin="round" />
    <path
        d="M13.5012 7.49818C12.8342 6.79788 12.8342 5.69743 13.5012 4.99714C14.1681 4.29685 14.1681 3.19638 13.5012 2.49609"
        stroke="currentColor" stroke-width="1.5" stroke-linecap="round" stroke-linejoin="round" />
    <path
        d="M9.99923 7.49818C9.33229 6.79788 9.33229 5.69743 9.99923 4.99714C10.6662 4.29684 10.6662 3.19639 9.99923 2.49609"
        stroke="currentColor" stroke-width="1.5" stroke-linecap="round" stroke-linejoin="round" />
    <path
        d="M6.49826 7.49818C5.83131 6.79789 5.83131 5.69743 6.49826 4.99714C7.1652 4.29684 7.1652 3.19639 6.49826 2.49609"
        stroke="currentColor" stroke-width="1.5" stroke-linecap="round" stroke-linejoin="round" />
    <path
        d="M16.13 17.6173L17.9766 17.1947C19.7481 16.7893 21.0042 15.2133 21.0042 13.396V13.396C21.0042 12.6277 20.6991 11.891 20.1559 11.3478C19.6127 10.8046 18.8759 10.4994 18.1077 10.4994H15.502"
        stroke="currentColor" stroke-width="1.5" stroke-linecap="round" stroke-linejoin="round" />
</svg>