<svg width="24" height="24" viewBox="0 0 24 24" fill="none" xmlns="http://www.w3.org/2000/svg">
    <path d="M15 3V8C15 8.552 14.552 9 14 9H10C9.448 9 9 8.552 9 8V3" stroke="currentColor" stroke-width="1.5"
        stroke-linecap="round" stroke-linejoin="round" />
    <path d="M21 12V5C21 3.895 20.105 3 19 3H5C3.895 3 3 3.895 3 5V19C3 20.105 3.895 21 5 21H12" stroke="currentColor"
        stroke-width="1.5" stroke-linecap="round" stroke-linejoin="round" />
    <path fill-rule="evenodd" clip-rule="evenodd"
        d="M22 18.5C22 20.437 20.437 22 18.5 22C16.563 22 15 20.437 15 18.5C15 16.563 16.563 15 18.5 15C20.437 15 22 16.563 22 18.5Z"
        stroke="currentColor" stroke-width="1.3125" stroke-linecap="round" stroke-linejoin="round" />
    <path d="M16.0264 20.974L20.9744 16.026" stroke="currentColor" stroke-width="1.3125" stroke-linecap="round"
        stroke-linejoin="round" />
</svg>