<svg width="24" height="24" viewBox="0 0 24 24" fill="none" xmlns="http://www.w3.org/2000/svg">
    <path
        d="M15 7H19.323C19.732 7 20.1 7.249 20.251 7.629L21.857 11.643C21.951 11.879 22 12.131 22 12.385V18.333C22 18.885 21.552 19.333 21 19.333H19.169"
        stroke="currentColor" stroke-width="1.5" stroke-linecap="round" stroke-linejoin="round" />
    <path d="M15.9999 19.42H8.16992" stroke="currentColor" stroke-width="1.5" stroke-linecap="round"
        stroke-linejoin="round" />
    <path d="M22 14H18V10H21.2" stroke="currentColor" stroke-width="1.5" stroke-linecap="round"
        stroke-linejoin="round" />
    <path d="M12.556 5H14C14.552 5 15 5.448 15 6V15H2" stroke="currentColor" stroke-width="1.5" stroke-linecap="round"
        stroke-linejoin="round" />
    <path
        d="M18.7043 18.296C19.3233 18.915 19.3233 19.918 18.7043 20.536C18.0853 21.155 17.0823 21.155 16.4642 20.536C15.8452 19.917 15.8452 18.914 16.4642 18.296C17.0833 17.678 18.0863 17.678 18.7043 18.296"
        stroke="currentColor" stroke-width="1.5" stroke-linecap="round" stroke-linejoin="round" />
    <path
        d="M7.70388 18.296C8.32288 18.915 8.32288 19.918 7.70388 20.536C7.08488 21.155 6.08188 21.155 5.46388 20.536C4.84588 19.917 4.84488 18.914 5.46388 18.296C6.08288 17.678 7.08488 17.678 7.70388 18.296"
        stroke="currentColor" stroke-width="1.5" stroke-linecap="round" stroke-linejoin="round" />
    <path d="M5 19.416H3C2.448 19.416 2 18.968 2 18.416V6C2 5.448 2.448 5 3 5H4.238" stroke="currentColor"
        stroke-width="1.5" stroke-linecap="round" stroke-linejoin="round" />
    <path
        d="M8.39728 9.318C6.10028 9.318 4.23828 7.456 4.23828 5.159C4.23828 2.909 6.15128 0.998002 8.40028 1C10.6963 1.002 12.5553 2.863 12.5553 5.159C12.5553 7.455 10.6943 9.318 8.39728 9.318"
        stroke="currentColor" stroke-width="1.5" />
    <path d="M10.2449 4.23499L7.93385 6.54599L6.54785 5.15899" stroke="currentColor" stroke-width="1.5"
        stroke-linecap="round" stroke-linejoin="round" />
</svg>