<svg width="24" height="24" viewBox="0 0 24 24" fill="none" xmlns="http://www.w3.org/2000/svg">
    <path d="M5 16H7" stroke="currentColor" stroke-width="1.5" stroke-linecap="round" stroke-linejoin="round" />
    <path
        d="M13 19H4C2.895 19 2 18.105 2 17V7.569C2 7.299 2.055 7.031 2.161 6.783L3.259 4.214C3.574 3.478 4.297 3 5.098 3H14.902C15.703 3 16.426 3.478 16.741 4.214L17.839 6.783C17.945 7.032 18 7.299 18 7.569V11.1"
        stroke="currentColor" stroke-width="1.5" stroke-linecap="round" stroke-linejoin="round" />
    <path d="M10 3V7.44" stroke="currentColor" stroke-width="1.5" stroke-linecap="round" stroke-linejoin="round" />
    <path d="M17.99 7.43994H2" stroke="currentColor" stroke-width="1.5" stroke-linecap="round"
        stroke-linejoin="round" />
    <path
        d="M20.5355 12.4645C22.4882 14.4171 22.4882 17.5829 20.5355 19.5355C18.5829 21.4882 15.4171 21.4882 13.4645 19.5355C11.5118 17.5829 11.5118 14.4171 13.4645 12.4645C15.4171 10.5118 18.5829 10.5118 20.5355 12.4645"
        stroke="currentColor" stroke-width="1.5" stroke-linecap="round" stroke-linejoin="round" />
    <path
        d="M18.1244 14.2975C18.9051 15.0782 18.9051 16.3439 18.1244 17.1245C17.3438 17.9052 16.0781 17.9052 15.2974 17.1245C14.5167 16.3439 14.5167 15.0782 15.2974 14.2975C16.0781 13.5169 17.3438 13.5169 18.1244 14.2975"
        stroke="currentColor" stroke-width="1.5" stroke-linecap="round" stroke-linejoin="round" />
    <path d="M18.9996 18.0001L18.1196 17.1201" stroke="currentColor" stroke-width="1.5" stroke-linecap="round"
        stroke-linejoin="round" />
</svg>