<svg width="24" height="24" viewBox="0 0 24 24" fill="none" xmlns="http://www.w3.org/2000/svg">
    <path d="M8 17L10 19L8 21" stroke="currentColor" stroke-width="1.5" stroke-linecap="round"
        stroke-linejoin="round" />
    <path d="M3 15V17C3 18.1 3.9 19 5 19H10" stroke="currentColor" stroke-width="1.5" stroke-linecap="round"
        stroke-linejoin="round" />
    <path d="M21 9V7C21 5.9 20.1 5 19 5H14" stroke="currentColor" stroke-width="1.5" stroke-linecap="round"
        stroke-linejoin="round" />
    <path d="M16 7L14 5L16 3" stroke="currentColor" stroke-width="1.5" stroke-linecap="round" stroke-linejoin="round" />
    <path fill-rule="evenodd" clip-rule="evenodd"
        d="M11 8.90005V5.10005C11 4.70005 10.8 4.30005 10.4 4.10005L7.1 2.20005C6.7 2.00005 6.3 2.00005 5.9 2.20005L2.6 4.10005C2.2 4.30005 2 4.70005 2 5.10005V8.90005C2 9.30005 2.2 9.70005 2.6 9.90005L5.9 11.8C6.3 12 6.7 12 7.1 11.8L10.4 9.90005C10.8 9.70005 11 9.30005 11 8.90005Z"
        stroke="currentColor" stroke-width="1.5" stroke-linecap="round" stroke-linejoin="round" />
    <path d="M2.2002 4.5L6.5002 7L10.8002 4.5" stroke="currentColor" stroke-width="1.5" stroke-linecap="round"
        stroke-linejoin="round" />
    <path d="M6.5 7V12" stroke="currentColor" stroke-width="1.5" stroke-linecap="round" stroke-linejoin="round" />
    <path fill-rule="evenodd" clip-rule="evenodd"
        d="M22 18.9V15.1C22 14.7 21.8 14.3 21.4 14.1L18.1 12.2C17.7 12 17.3 12 16.9 12.2L13.6 14.1C13.2 14.3 13 14.7 13 15.1V18.9C13 19.3 13.2 19.7 13.6 19.9L16.9 21.8C17.3 22 17.7 22 18.1 21.8L21.4 19.9C21.8 19.7 22 19.3 22 18.9Z"
        stroke="currentColor" stroke-width="1.5" stroke-linecap="round" stroke-linejoin="round" />
    <path d="M13.2002 14.5L17.5002 17L21.8002 14.5" stroke="currentColor" stroke-width="1.5" stroke-linecap="round"
        stroke-linejoin="round" />
    <path d="M17.5 17V22" stroke="currentColor" stroke-width="1.5" stroke-linecap="round" stroke-linejoin="round" />
</svg>