<svg width="24" height="24" viewBox="0 0 24 24" fill="none" xmlns="http://www.w3.org/2000/svg">
    <path d="M12 21H5C3.895 21 3 20.105 3 19V5C3 3.895 3.895 3 5 3H19C20.105 3 21 3.895 21 5V12" stroke="currentColor"
        stroke-width="1.5" stroke-linecap="round" stroke-linejoin="round" />
    <path fill-rule="evenodd" clip-rule="evenodd"
        d="M14.767 18.691C14.493 18.275 14.493 17.727 14.767 17.311C15.615 16.028 16.947 15 18.28 15C19.613 15 20.944 16.028 21.793 17.31C22.068 17.726 22.068 18.275 21.793 18.69C20.943 19.972 19.612 21 18.28 21C16.947 21.001 15.615 19.973 14.767 18.691V18.691Z"
        stroke="currentColor" stroke-width="1.5" stroke-linecap="round" stroke-linejoin="round" />
    <path
        d="M18.3798 17.901C18.4358 17.957 18.4358 18.046 18.3798 18.102C18.3238 18.158 18.2348 18.158 18.1788 18.102C18.1228 18.046 18.1228 17.957 18.1788 17.901C18.2348 17.845 18.3248 17.845 18.3798 17.901"
        stroke="currentColor" stroke-width="1.5" stroke-linecap="round" stroke-linejoin="round" />
    <path d="M15 3V8C15 8.552 14.552 9 14 9H10C9.448 9 9 8.552 9 8V3" stroke="currentColor" stroke-width="1.5"
        stroke-linecap="round" stroke-linejoin="round" />
</svg>