<svg width="24" height="24" viewBox="0 0 24 24" fill="none" xmlns="http://www.w3.org/2000/svg">
    <path
        d="M14 20H5.125C3.951 20 3 19.049 3 17.875V7.855C3 7.568 3.058 7.283 3.171 7.02L4.338 4.29C4.672 3.508 5.441 3 6.292 3H16.709C17.56 3 18.328 3.508 18.663 4.29L19.83 7.02C19.942 7.284 20 7.568 20 7.855V12"
        stroke="currentColor" stroke-width="1.5" stroke-linecap="round" stroke-linejoin="round" />
    <path d="M11.5 3V7.44" stroke="currentColor" stroke-width="1.5" stroke-linecap="round" stroke-linejoin="round" />
    <path d="M19.957 7.43994H3.04297" stroke="currentColor" stroke-width="1.5" stroke-linecap="round"
        stroke-linejoin="round" />
    <path d="M6 16H8" stroke="currentColor" stroke-width="1.5" stroke-linecap="round" stroke-linejoin="round" />
    <path
        d="M17 21C14.239 21 12 18.761 12 16C12 13.239 14.239 11 17 11C19.762 11 22 13.239 22 16C22 18.761 19.762 21 17 21"
        stroke="currentColor" stroke-width="1.5" stroke-linecap="round" stroke-linejoin="round" />
    <path
        d="M18.7714 15.483L19.1764 15.078C19.5414 15.939 19.3734 16.971 18.6714 17.672C18.1084 18.235 17.3344 18.447 16.6064 18.322"
        stroke="currentColor" stroke-width="1.5" stroke-linecap="round" stroke-linejoin="round" />
    <path
        d="M15.2291 16.517L14.8241 16.922C14.4591 16.061 14.6271 15.029 15.3291 14.328C15.9261 13.731 16.7621 13.53 17.5281 13.705"
        stroke="currentColor" stroke-width="1.5" stroke-linecap="round" stroke-linejoin="round" />
</svg>