<svg width="24" height="24" viewBox="0 0 24 24" fill="none" xmlns="http://www.w3.org/2000/svg">
    <path fill-rule="evenodd" clip-rule="evenodd"
        d="M17.1957 14.423V9.57704C17.1957 9.22004 17.0047 8.89004 16.6957 8.71104L12.4997 6.28904C12.1907 6.11004 11.8087 6.11004 11.4997 6.28904L7.30371 8.71104C6.99471 8.89004 6.80371 9.22004 6.80371 9.57704V14.422C6.80371 14.779 6.99471 15.109 7.30371 15.288L11.4997 17.711C11.8087 17.89 12.1907 17.89 12.4997 17.711L16.6957 15.288C17.0057 15.11 17.1957 14.78 17.1957 14.423Z"
        stroke="currentColor" stroke-width="1.25" stroke-linecap="round" stroke-linejoin="round" />
    <path d="M7.5 3H5C3.895 3 3 3.895 3 5V7.5" stroke="currentColor" stroke-width="1.3825" stroke-linecap="round"
        stroke-linejoin="round" />
    <path d="M3 16.5V19C3 20.105 3.895 21 5 21H7.5" stroke="currentColor" stroke-width="1.3825" stroke-linecap="round"
        stroke-linejoin="round" />
    <path d="M16.5 21H19C20.105 21 21 20.105 21 19V16.5" stroke="currentColor" stroke-width="1.3825"
        stroke-linecap="round" stroke-linejoin="round" />
    <path d="M21 7.5V5C21 3.895 20.105 3 19 3H16.5" stroke="currentColor" stroke-width="1.3825" stroke-linecap="round"
        stroke-linejoin="round" />
    <path d="M12 17.84V12" stroke="currentColor" stroke-width="1.25" stroke-linecap="round" stroke-linejoin="round" />
    <path d="M6.93848 9.07703L12.0005 12L17.0625 9.07703" stroke="currentColor" stroke-width="1.25"
        stroke-linecap="round" stroke-linejoin="round" />
</svg>