<svg width="24" height="24" viewBox="0 0 24 24" fill="none" xmlns="http://www.w3.org/2000/svg">
    <path d="M4.99707 2.99622H18.0025C19.1075 2.99622 20.0033 3.89202 20.0033 4.99705V10.9995" stroke="currentColor"
        stroke-width="1.5" stroke-linecap="round" stroke-linejoin="round" />
    <path d="M10.9996 21.0037H4.99707" stroke="currentColor" stroke-width="1.5" stroke-linecap="round"
        stroke-linejoin="round" />
    <path d="M7.99826 10.9996V13.0005" stroke="currentColor" stroke-width="1.5" stroke-linecap="round"
        stroke-linejoin="round" />
    <path fill-rule="evenodd" clip-rule="evenodd"
        d="M2.99609 4.99704V19.0029C2.99609 19.6962 3.35509 20.3401 3.94485 20.7047C4.53461 21.0693 5.27108 21.1025 5.8913 20.7926L9.89297 18.7918C10.571 18.453 10.9994 17.76 10.9994 17.002V6.99787C10.9983 6.24094 10.5701 5.54947 9.89297 5.21112L5.8913 3.21029C5.27155 2.9006 4.53571 2.93356 3.94613 3.29741C3.35655 3.66126 2.99716 4.30422 2.99609 4.99704Z"
        stroke="currentColor" stroke-width="1.5" stroke-linecap="round" stroke-linejoin="round" />
    <path fill-rule="evenodd" clip-rule="evenodd"
        d="M21.0035 22.0041H16.0014C15.4489 22.0041 15.001 21.5562 15.001 21.0037V16.0016C15.001 15.4491 15.4489 15.0012 16.0014 15.0012H21.0035C21.556 15.0012 22.0039 15.4491 22.0039 16.0016V21.0037C22.0039 21.5562 21.556 22.0041 21.0035 22.0041Z"
        stroke="currentColor" stroke-width="1.5" stroke-linecap="round" stroke-linejoin="round" />
    <path d="M19.6946 17.7584L18.203 19.246L17.3086 18.3537" stroke="currentColor" stroke-width="1.5"
        stroke-linecap="round" stroke-linejoin="round" />
</svg>