<svg width="24" height="24" viewBox="0 0 24 24" fill="none" xmlns="http://www.w3.org/2000/svg">
    <path d="M15.192 21H2.929C2.416 21 2 20.634 2 20.183V8C2 7.448 2.448 7 3 7H14C14.552 7 15 7.448 15 8V10"
        stroke="currentColor" stroke-width="1.5" stroke-linecap="round" stroke-linejoin="round" />
    <path d="M20 6L19 10" stroke="currentColor" stroke-width="1.5" stroke-linecap="round" stroke-linejoin="round" />
    <path fill-rule="evenodd" clip-rule="evenodd"
        d="M14.1066 10H20.6646C21.0946 10 21.4776 10.275 21.6136 10.684L21.9466 11.684C22.1636 12.331 21.6816 13 20.9986 13H13.7736C13.0906 13 12.6086 12.331 12.8246 11.684L13.1576 10.684C13.2946 10.275 13.6766 10 14.1066 10Z"
        stroke="currentColor" stroke-width="1.5" stroke-linecap="round" stroke-linejoin="round" />
    <path fill-rule="evenodd" clip-rule="evenodd" d="M11 3H6C5.448 3 5 3.448 5 4V7H12V4C12 3.448 11.552 3 11 3Z"
        stroke="currentColor" stroke-width="1.5" stroke-linecap="round" stroke-linejoin="round" />
    <path
        d="M21.3596 12.926L20.4716 20.123C20.4096 20.624 19.9836 21 19.4796 21H15.1926C14.6876 21 14.2616 20.624 14.2006 20.123L13.3066 12.885"
        stroke="currentColor" stroke-width="1.5" stroke-linecap="round" stroke-linejoin="round" />
</svg>