<svg width="24" height="24" viewBox="0 0 24 24" fill="none" xmlns="http://www.w3.org/2000/svg">
    <path d="M6 8V5C6 4.448 6.448 4 7 4H8C8.552 4 9 4.448 9 5V10.692" stroke="currentColor" stroke-width="1.5"
        stroke-linecap="round" stroke-linejoin="round" />
    <path d="M9 6C9 5.448 9.448 5 10 5H11C11.552 5 12 5.448 12 6" stroke="currentColor" stroke-width="1.5"
        stroke-linecap="round" stroke-linejoin="round" />
    <path d="M12 11V4C12 3.448 12.448 3 13 3H14C14.552 3 15 3.448 15 4V5.153" stroke="currentColor" stroke-width="1.5"
        stroke-linecap="round" stroke-linejoin="round" />
    <path d="M15 10.692V5C15 4.448 15.448 4 16 4H17C17.552 4 18 4.448 18 5V8" stroke="currentColor" stroke-width="1.5"
        stroke-linecap="round" stroke-linejoin="round" />
    <path d="M9 16H15" stroke="currentColor" stroke-width="1.5" stroke-linecap="round" stroke-linejoin="round" />
    <path fill-rule="evenodd" clip-rule="evenodd"
        d="M4.257 8H6.558C7.419 8 8.183 8.551 8.455 9.368L8.771 10.317C8.908 10.725 9.29 11 9.721 11H14.279C14.709 11 15.092 10.725 15.228 10.316L15.544 9.367C15.816 8.551 16.581 8 17.442 8H19.743C20.386 8 20.862 8.598 20.717 9.225L18.357 19.45C18.148 20.357 17.34 21 16.409 21H7.591C6.66 21 5.852 20.357 5.642 19.45L3.283 9.225C3.138 8.598 3.614 8 4.257 8Z"
        stroke="currentColor" stroke-width="1.5" stroke-linecap="round" stroke-linejoin="round" />
</svg>