<svg width="24" height="24" viewBox="0 0 24 24" fill="none" xmlns="http://www.w3.org/2000/svg">
    <path fill-rule="evenodd" clip-rule="evenodd"
        d="M5.99734 21.0037H3.99651C3.444 21.0037 2.99609 20.5558 2.99609 20.0033V14.0008C2.99609 13.4483 3.444 13.0004 3.99651 13.0004H5.99734C6.54986 13.0004 6.99776 13.4483 6.99776 14.0008V20.0033C6.99776 20.5558 6.54986 21.0037 5.99734 21.0037Z"
        stroke="currentColor" stroke-width="1.5" stroke-linecap="round" stroke-linejoin="round" />
    <path d="M13.5012 3.9967V8.59862" stroke="currentColor" stroke-width="1.5" stroke-linecap="round"
        stroke-linejoin="round" />
    <path
        d="M20.0035 14.0009V10.0392C20.0007 9.24319 19.3549 8.59918 18.5589 8.59863H8.44265C7.6466 8.59918 7.0008 9.24319 6.99805 10.0392V15.1013"
        stroke="currentColor" stroke-width="1.5" stroke-linecap="round" stroke-linejoin="round" />
    <path
        d="M6.99805 14.0009V7.96938C6.99826 7.57913 7.0772 7.19293 7.23014 6.8339L8.02147 4.98313C8.27715 4.38465 8.86529 3.99649 9.5161 3.99671H17.4844C18.1372 3.99461 18.7281 4.383 18.985 4.98313L19.7764 6.8359C19.9278 7.19522 20.0051 7.58145 20.0035 7.97138V14.4861"
        stroke="currentColor" stroke-width="1.5" stroke-linecap="round" stroke-linejoin="round" />
    <path
        d="M13.0005 17.002H15.3345C15.7674 17.002 16.1887 16.8616 16.535 16.6019L18.952 14.7891C19.5554 14.3368 20.3996 14.3969 20.9329 14.9302V14.9302C21.2172 15.2143 21.3769 15.5997 21.3769 16.0016C21.3769 16.4035 21.2172 16.789 20.9329 17.0731L18.859 19.1469C18.3004 19.7056 17.5888 20.0864 16.8141 20.2414L13.8829 20.8276C13.3018 20.9438 12.7021 20.9295 12.1272 20.7856L9.47608 20.1233C9.15914 20.0435 8.83353 20.0031 8.50668 20.0033H6.99805"
        stroke="currentColor" stroke-width="1.5" stroke-linecap="round" stroke-linejoin="round" />
    <path
        d="M13.0005 17.002H14.4862C15.3232 17.002 16.0018 16.3235 16.0018 15.4864V15.1863C16.0018 14.4911 15.5287 13.8852 14.8543 13.7167L12.5614 13.1434C12.1888 13.0494 11.8061 13.0014 11.4219 13.0004V13.0004C10.4943 13.0001 9.58737 13.2748 8.8158 13.7897L6.99805 15.0012"
        stroke="currentColor" stroke-width="1.5" stroke-linecap="round" stroke-linejoin="round" />
</svg>