<svg width="24" height="24" viewBox="0 0 24 24" fill="none" xmlns="http://www.w3.org/2000/svg">
    <path fill-rule="evenodd" clip-rule="evenodd"
        d="M5.23987 18.734V18.734C4.12187 17.616 4.12187 15.804 5.23987 14.686L14.6859 5.23999C15.8039 4.12199 17.6159 4.12199 18.7339 5.23999V5.23999C19.8519 6.35799 19.8519 8.16999 18.7339 9.28799L9.28787 18.734C8.16987 19.852 6.35787 19.852 5.23987 18.734Z"
        stroke="currentColor" stroke-width="1.5" stroke-linecap="round" stroke-linejoin="round" />
    <path
        d="M16.3163 7.31909L15.9903 7.64509L15.9893 7.64609C15.7373 7.89809 15.5423 8.20509 15.4623 8.51009V8.51009V8.51009C15.3033 9.11909 14.6803 9.74109 14.0723 9.90009V9.90009V9.90009C13.4633 10.0591 12.8413 10.6821 12.6823 11.2901V11.2901V11.2901C12.5233 11.8991 11.9003 12.5211 11.2923 12.6801V12.6801V12.6801C10.6833 12.8391 10.0613 13.4621 9.90229 14.0701V14.0701V14.0701C9.74329 14.6791 9.12029 15.3011 8.51229 15.4601V15.4601V15.4601V15.4601V15.4601C8.20829 15.5401 7.90029 15.7351 7.64829 15.9871L7.32129 16.3141"
        stroke="currentColor" stroke-width="1.5" stroke-linecap="round" stroke-linejoin="round" />
    <path fill-rule="evenodd" clip-rule="evenodd"
        d="M9.67905 20.4751V20.4751C9.09005 19.8861 9.09005 18.9311 9.67905 18.3421L18.3421 9.67905C18.9311 9.09005 19.8851 9.09005 20.4741 9.67905V9.67905C20.6601 9.86505 20.7931 10.0951 20.8621 10.3481L20.8981 10.4791C21.1681 11.4701 20.8871 12.5301 20.1601 13.2571L13.2561 20.1611C12.5301 20.8871 11.4701 21.1691 10.4791 20.8991L10.3471 20.8631C10.0951 20.7941 9.86405 20.6601 9.67905 20.4751V20.4751Z"
        stroke="currentColor" stroke-width="1.5" stroke-linecap="round" stroke-linejoin="round" />
    <path fill-rule="evenodd" clip-rule="evenodd"
        d="M14.2945 3.49804V3.49804C14.8835 4.08704 14.8835 5.04204 14.2945 5.63104L5.63046 14.294C5.04146 14.883 4.08646 14.883 3.49746 14.294V14.294C3.31146 14.108 3.17846 13.878 3.10946 13.625V13.625C2.81646 12.553 3.12146 11.406 3.90746 10.62L10.6185 3.90904C11.4045 3.12304 12.5515 2.81804 13.6235 3.11104V3.11104C13.8775 3.17804 14.1085 3.31204 14.2945 3.49804Z"
        stroke="currentColor" stroke-width="1.5" stroke-linecap="round" stroke-linejoin="round" />
</svg>