<svg width="24" height="24" viewBox="0 0 24 24" fill="none" xmlns="http://www.w3.org/2000/svg">
    <path fill-rule="evenodd" clip-rule="evenodd"
        d="M7.99805 3.99668L9.29859 2.37101C9.48853 2.13377 9.77601 1.99574 10.0799 1.99585H13.9205C14.2244 1.99574 14.5119 2.13377 14.7018 2.37101L16.0014 3.99668V3.99668V4.9971C16.0014 5.54961 15.5535 5.99752 15.001 5.99752H8.99846C8.44595 5.99752 7.99805 5.54961 7.99805 4.9971V3.99668Z"
        stroke="currentColor" stroke-width="1.5" stroke-linecap="round" stroke-linejoin="round" />
    <path d="M7.99805 17.002H9.99888" stroke="currentColor" stroke-width="1.5" stroke-linecap="round"
        stroke-linejoin="round" />
    <path d="M7.99805 8.99874H16.0014" stroke="currentColor" stroke-width="1.5" stroke-linecap="round"
        stroke-linejoin="round" />
    <path d="M7.99805 13.0005H11.9997" stroke="currentColor" stroke-width="1.5" stroke-linecap="round"
        stroke-linejoin="round" />
    <path
        d="M15.3568 21.0038H5.9979C4.89287 21.0038 3.99707 20.108 3.99707 19.003V5.99754C3.99707 4.89251 4.89287 3.9967 5.9979 3.9967H7.99874"
        stroke="currentColor" stroke-width="1.5" stroke-linecap="round" stroke-linejoin="round" />
    <path d="M16.002 3.9967H18.0028C19.1078 3.9967 20.0036 4.89251 20.0036 5.99754V14.5381" stroke="currentColor"
        stroke-width="1.5" stroke-linecap="round" stroke-linejoin="round" />
    <path d="M19.0028 17.0021L17.002 19.0029" stroke="currentColor" stroke-width="1.5" stroke-linecap="round"
        stroke-linejoin="round" />
    <path d="M17.002 17.0021L19.0028 19.0029" stroke="currentColor" stroke-width="1.5" stroke-linecap="round"
        stroke-linejoin="round" />
    <path
        d="M18.0026 22.0042C15.7926 22.0042 14.001 20.2126 14.001 18.0025C14.001 15.7925 15.7926 14.0009 18.0026 14.0009C20.2127 14.0009 22.0043 15.7925 22.0043 18.0025C22.0043 20.2126 20.2127 22.0042 18.0026 22.0042"
        stroke="currentColor" stroke-width="1.5" stroke-linecap="round" stroke-linejoin="round" />
</svg>