<svg width="24" height="24" viewBox="0 0 24 24" fill="none" xmlns="http://www.w3.org/2000/svg">
    <path
        d="M15.0015 3.07325V6.5637C15.0015 7.11622 14.5536 7.56412 14.0011 7.56412H9.99944C9.44693 7.56412 8.99902 7.11622 8.99902 6.5637V2.99622"
        stroke="currentColor" stroke-width="1.5" stroke-linecap="round" stroke-linejoin="round" />
    <path
        d="M21.0036 12V4.99705C21.0036 3.89202 20.1078 2.99622 19.0028 2.99622H4.99693C3.8919 2.99622 2.99609 3.89202 2.99609 4.99705V18.0025C2.99609 19.1075 3.8919 20.0033 4.99693 20.0033H10.9994"
        stroke="currentColor" stroke-width="1.5" stroke-linecap="round" stroke-linejoin="round" />
    <path fill-rule="evenodd" clip-rule="evenodd"
        d="M18.4307 20.5196C18.1202 20.8298 17.6991 21.004 17.2602 21.0038V21.0038C16.8213 21.0036 16.4004 20.8294 16.0897 20.5196L14.1009 18.5347C13.3101 17.7177 13.3207 16.4174 14.1247 15.6134C14.9287 14.8093 16.229 14.7987 17.0461 15.5895L17.2562 15.7986L17.4663 15.5895C18.2833 14.7987 19.5836 14.8093 20.3876 15.6134C21.1917 16.4174 21.2023 17.7177 20.4115 18.5347L18.4307 20.5196Z"
        stroke="currentColor" stroke-width="1.5" stroke-linecap="round" stroke-linejoin="round" />
</svg>