<svg width="24" height="24" viewBox="0 0 24 24" fill="none" xmlns="http://www.w3.org/2000/svg">
    <path
        d="M5.625 18.3576C8.5037 21.2444 12.9629 21.8367 16.4954 19.8015C20.0279 17.7663 21.752 13.6115 20.6985 9.67312C19.6449 5.73478 16.0765 2.9958 11.9997 2.99622"
        stroke="currentColor" stroke-width="1.5" stroke-linecap="round" stroke-linejoin="round" />
    <path
        d="M3.72775 15.3765C3.70012 15.3765 3.67773 15.3989 3.67773 15.4265C3.67773 15.4541 3.70012 15.4765 3.72775 15.4765C3.74562 15.4765 3.76213 15.467 3.77107 15.4515C3.78 15.436 3.78 15.4169 3.77107 15.4015C3.76213 15.386 3.74562 15.3765 3.72775 15.3765"
        stroke="currentColor" stroke-width="1.5" stroke-linecap="round" stroke-linejoin="round" />
    <path
        d="M3.04611 11.9499C3.01848 11.9499 2.99609 11.9723 2.99609 12C2.99609 12.0276 3.01848 12.05 3.04611 12.05C3.07373 12.05 3.09613 12.0276 3.09613 12C3.09613 11.9723 3.07373 11.9499 3.04611 11.9499"
        stroke="currentColor" stroke-width="1.5" stroke-linecap="round" stroke-linejoin="round" />
    <path
        d="M3.72775 8.52355C3.71448 8.52355 3.70176 8.52882 3.69238 8.5382C3.683 8.54758 3.67773 8.56031 3.67773 8.57357C3.67773 8.6012 3.70012 8.62359 3.72775 8.62359C3.74562 8.62359 3.76213 8.61406 3.77107 8.59858C3.78 8.58311 3.78 8.56404 3.77107 8.54856C3.76213 8.53309 3.74562 8.52355 3.72775 8.52355"
        stroke="currentColor" stroke-width="1.5" stroke-linecap="round" stroke-linejoin="round" />
    <path
        d="M5.66818 5.61828C5.64077 5.61881 5.61869 5.6409 5.61816 5.6683C5.61816 5.69592 5.64055 5.71832 5.66818 5.71832C5.6958 5.71832 5.7182 5.69592 5.7182 5.6683C5.7182 5.64067 5.6958 5.61828 5.66818 5.61828"
        stroke="currentColor" stroke-width="1.5" stroke-linecap="round" stroke-linejoin="round" />
    <path
        d="M8.57345 3.67748C8.54582 3.67748 8.52343 3.69988 8.52343 3.7275C8.52343 3.75513 8.54582 3.77752 8.57345 3.77752C8.60108 3.77752 8.62347 3.75513 8.62347 3.7275C8.62347 3.69988 8.60108 3.67748 8.57345 3.67748"
        stroke="currentColor" stroke-width="1.5" stroke-linecap="round" stroke-linejoin="round" />
    <path fill-rule="evenodd" clip-rule="evenodd"
        d="M8.30566 13.4716V10.5313C8.30643 10.1561 8.50846 9.81008 8.83488 9.62497L11.491 8.13235C11.8071 7.95426 12.1933 7.95426 12.5094 8.13235L15.1655 9.62497C15.4924 9.80962 15.6946 10.1559 15.6947 10.5313V13.4716C15.6924 13.8449 15.4905 14.1884 15.1655 14.3719L12.5084 15.8646C12.192 16.0417 11.8064 16.0417 11.49 15.8646L8.83388 14.3759C8.5077 14.1917 8.3059 13.8462 8.30566 13.4716V13.4716Z"
        stroke="currentColor" stroke-width="1.5" stroke-linecap="round" stroke-linejoin="round" />
    <path d="M12.0002 12V16.0017" stroke="currentColor" stroke-width="1.5" stroke-linecap="round"
        stroke-linejoin="round" />
    <path d="M8.44727 10.0061L11.9997 12L15.5522 10.0051" stroke="currentColor" stroke-width="1.5"
        stroke-linecap="round" stroke-linejoin="round" />
</svg>