<svg width="24" height="24" viewBox="0 0 24 24" fill="none" xmlns="http://www.w3.org/2000/svg">
    <path
        d="M13.0003 21.0037H5.24703C4.00387 21.0037 2.99609 19.9959 2.99609 18.7528V8.13836C2.99609 7.83438 3.05784 7.53357 3.17717 7.25399L4.41268 4.36278C4.76723 3.53429 5.58137 2.99677 6.48255 2.99622H17.5161C18.4174 2.99651 19.2317 3.53411 19.586 4.36278L20.8215 7.25399C20.9415 7.53339 21.0036 7.83427 21.0036 8.13836V12"
        stroke="currentColor" stroke-width="1.5" stroke-linecap="round" stroke-linejoin="round" />
    <path d="M12.0002 2.99622V7.9983" stroke="currentColor" stroke-width="1.5" stroke-linecap="round"
        stroke-linejoin="round" />
    <path d="M6.99805 17.002H8.99888" stroke="currentColor" stroke-width="1.5" stroke-linecap="round"
        stroke-linejoin="round" />
    <path
        d="M21.0036 13.0004V9.99912C21.0036 8.89409 20.1078 7.99829 19.0028 7.99829H4.99693C3.8919 7.99829 2.99609 8.89409 2.99609 9.99912V17.002"
        stroke="currentColor" stroke-width="1.5" stroke-linecap="round" stroke-linejoin="round" />
    <path
        d="M17.0022 21.0038H18.5029C19.8841 21.0038 21.0039 19.884 21.0039 18.5028V18.5028C21.0039 17.1215 19.8841 16.0017 18.5029 16.0017H14.001"
        stroke="currentColor" stroke-width="1.5" stroke-linecap="round" stroke-linejoin="round" />
    <path d="M16.0018 18.0025L14.001 16.0017L16.0018 14.0009" stroke="currentColor" stroke-width="1.5"
        stroke-linecap="round" stroke-linejoin="round" />
</svg>