<svg width="24" height="24" viewBox="0 0 24 24" fill="none" xmlns="http://www.w3.org/2000/svg">
    <path fill-rule="evenodd" clip-rule="evenodd"
        d="M9.14218 3.21928L21.2042 9.44488C21.5347 9.61542 21.7433 9.95522 21.7458 10.3271C21.7483 10.699 21.5444 11.0416 21.2162 11.2166L16.7143 13.6176C16.1345 13.927 15.4397 13.9318 14.8556 13.6306L2.79654 7.40302C2.46605 7.23248 2.25745 6.89268 2.25491 6.52079C2.25241 6.14889 2.45639 5.8063 2.78454 5.63129L7.28641 3.23029C7.86579 2.92262 8.55919 2.91851 9.14218 3.21928Z"
        stroke="currentColor" stroke-width="1.5" stroke-linecap="round" stroke-linejoin="round" />
    <path fill-rule="evenodd" clip-rule="evenodd"
        d="M14.8586 3.21928L2.79654 9.44488C2.46605 9.61542 2.25745 9.95522 2.25491 10.3271C2.25241 10.699 2.45639 11.0416 2.78454 11.2166L7.28641 13.6176C7.86626 13.927 8.56106 13.9318 9.14519 13.6306L21.2042 7.40302C21.5347 7.23248 21.7433 6.89268 21.7458 6.52079C21.7483 6.14889 21.5444 5.8063 21.2162 5.63129L16.7143 3.23029C16.135 2.92262 15.4416 2.91851 14.8586 3.21928Z"
        stroke="currentColor" stroke-width="1.5" stroke-linecap="round" stroke-linejoin="round" />
    <path
        d="M19.1083 12.3412V16.2788C19.1083 17.0179 18.701 17.6968 18.0488 18.0446L12.9467 20.7687C12.3583 21.0824 11.6523 21.0824 11.0639 20.7687L5.96178 18.0446C5.30962 17.6968 4.90234 17.0179 4.90234 16.2788V12.3412"
        stroke="currentColor" stroke-width="1.5" stroke-linecap="round" stroke-linejoin="round" />
    <path d="M12.0002 21.0037V12.1541" stroke="currentColor" stroke-width="1.5" stroke-linecap="round"
        stroke-linejoin="round" />
</svg>