<svg width="24" height="24" viewBox="0 0 24 24" fill="none" xmlns="http://www.w3.org/2000/svg">
    <path
        d="M10.9994 21.0037H5.24703C4.00387 21.0037 2.99609 19.9959 2.99609 18.7528V8.13836C2.99609 7.83438 3.05784 7.53357 3.17717 7.25399L4.41268 4.36278C4.76723 3.53429 5.58137 2.99677 6.48255 2.99622H17.5161C18.4174 2.99651 19.2317 3.53411 19.586 4.36278L20.8215 7.25399C20.9415 7.53339 21.0036 7.83427 21.0036 8.13836V12"
        stroke="currentColor" stroke-width="1.5" stroke-linecap="round" stroke-linejoin="round" />
    <path fill-rule="evenodd" clip-rule="evenodd"
        d="M22.0043 18.0025V18.0025C22.0043 20.2126 20.2127 22.0042 18.0026 22.0042V22.0042C15.7926 22.0042 14.001 20.2126 14.001 18.0025V18.0025C14.001 15.7925 15.7926 14.0009 18.0026 14.0009V14.0009C20.2127 14.0009 22.0043 15.7925 22.0043 18.0025Z"
        stroke="currentColor" stroke-width="1.5" stroke-linecap="round" stroke-linejoin="round" />
    <path d="M18.0022 16.6689V19.3361" stroke="currentColor" stroke-width="1.5" stroke-linecap="round"
        stroke-linejoin="round" />
    <path d="M17.002 17.6694L18.0024 16.6689L19.0028 17.6694" stroke="currentColor" stroke-width="1.5"
        stroke-linecap="round" stroke-linejoin="round" />
    <path d="M12.0002 2.99622V7.9983" stroke="currentColor" stroke-width="1.5" stroke-linecap="round"
        stroke-linejoin="round" />
    <path d="M6.99805 17.002H8.99888" stroke="currentColor" stroke-width="1.5" stroke-linecap="round"
        stroke-linejoin="round" />
    <path
        d="M21.0036 9.99912C21.0036 8.89409 20.1078 7.99829 19.0028 7.99829H4.99693C3.8919 7.99829 2.99609 8.89409 2.99609 9.99912"
        stroke="currentColor" stroke-width="1.5" stroke-linecap="round" stroke-linejoin="round" />
</svg>