<svg width="24" height="24" viewBox="0 0 24 24" fill="none" xmlns="http://www.w3.org/2000/svg">
    <path fill-rule="evenodd" clip-rule="evenodd"
        d="M20.0033 22.0042H14.0008C12.8958 22.0042 12 21.1084 12 20.0033V14.0008C12 12.8958 12.8958 12 14.0008 12H20.0033C21.1084 12 22.0042 12.8958 22.0042 14.0008V20.0033C22.0042 21.1084 21.1084 22.0042 20.0033 22.0042Z"
        stroke="currentColor" stroke-width="1.5" stroke-linecap="round" stroke-linejoin="round" />
    <path d="M18.5032 15.3344H15.502" stroke="currentColor" stroke-width="1.5" stroke-linecap="round"
        stroke-linejoin="round" />
    <path
        d="M12.0003 16.2408C11.3449 16.3981 10.6734 16.479 9.99943 16.4819C9.44174 16.4816 8.88535 16.4283 8.33774 16.3228L5.19743 17.8695C5.19743 16.799 5.19743 15.7796 5.19743 15.0233C3.23154 13.7505 2.03058 11.5805 1.99609 9.23887C1.99609 5.22019 5.59759 1.99585 9.99943 1.99585C14.4013 1.99585 18.0028 5.22019 18.0028 9.23887C18.0013 10.1921 17.7945 11.1338 17.3965 12"
        stroke="currentColor" stroke-width="1.5" stroke-linecap="round" stroke-linejoin="round" />
    <path
        d="M10.1763 9.20884C10.2738 9.30657 10.2737 9.46481 10.176 9.56239C10.0784 9.65996 9.92011 9.65996 9.82246 9.56239C9.7248 9.46481 9.72467 9.30657 9.82216 9.20884C9.86908 9.1618 9.93279 9.13536 9.99923 9.13536C10.0657 9.13536 10.1294 9.1618 10.1763 9.20884"
        stroke="currentColor" stroke-width="1.5" stroke-linecap="round" stroke-linejoin="round" />
    <path
        d="M13.7329 9.20884C13.8304 9.30657 13.8303 9.46481 13.7326 9.56239C13.635 9.65996 13.4768 9.65996 13.3791 9.56239C13.2814 9.46481 13.2813 9.30657 13.3788 9.20884C13.4257 9.1618 13.4894 9.13536 13.5559 9.13536C13.6223 9.13536 13.686 9.1618 13.7329 9.20884"
        stroke="currentColor" stroke-width="1.5" stroke-linecap="round" stroke-linejoin="round" />
    <path
        d="M6.61869 9.20884C6.71618 9.30657 6.71605 9.46481 6.61839 9.56239C6.52074 9.65996 6.36249 9.65996 6.26484 9.56239C6.16718 9.46481 6.16705 9.30657 6.26454 9.20884C6.31146 9.1618 6.37517 9.13536 6.44161 9.13536C6.50806 9.13536 6.57177 9.1618 6.61869 9.20884"
        stroke="currentColor" stroke-width="1.5" stroke-linecap="round" stroke-linejoin="round" />
</svg>