<svg width="24" height="24" viewBox="0 0 24 24" fill="none" xmlns="http://www.w3.org/2000/svg">
    <path d="M10.667 21.0038L12.0005 19.6702L10.667 18.3367" stroke="currentColor" stroke-width="1.5"
        stroke-linecap="round" stroke-linejoin="round" />
    <path
        d="M20.8928 14.0068C21.522 14.3895 21.9339 15.0465 22.0042 15.7796C22.0042 17.4163 19.4032 18.8138 15.7236 19.3891"
        stroke="currentColor" stroke-width="1.5" stroke-linecap="round" stroke-linejoin="round" />
    <path
        d="M3.10756 14.0068C2.47834 14.3895 2.06643 15.0465 1.99609 15.7796C1.99609 17.9285 6.47496 19.6702 12.0003 19.6702"
        stroke="currentColor" stroke-width="1.5" stroke-linecap="round" stroke-linejoin="round" />
    <path fill-rule="evenodd" clip-rule="evenodd"
        d="M6.76562 11.5208V7.47815C6.76716 6.96127 7.04701 6.48529 7.49793 6.23263L11.1485 4.17978C11.5835 3.93601 12.114 3.93601 12.549 4.17978L16.2016 6.23263C16.6517 6.48555 16.9302 6.96182 16.9299 7.47815V11.5208C16.9299 12.037 16.6514 12.5131 16.2016 12.7664L12.549 14.8182C12.1141 15.0624 11.5834 15.0624 11.1485 14.8182L7.49693 12.7654C7.04594 12.5134 6.76626 12.0374 6.76562 11.5208Z"
        stroke="currentColor" stroke-width="1.5" stroke-linecap="round" stroke-linejoin="round" />
    <path d="M11.8459 9.4989V15.0012" stroke="currentColor" stroke-width="1.5" stroke-linecap="round"
        stroke-linejoin="round" />
    <path d="M6.96094 6.75684L11.846 9.49898L16.732 6.75684" stroke="currentColor" stroke-width="1.5"
        stroke-linecap="round" stroke-linejoin="round" />
</svg>