<svg width="24" height="24" viewBox="0 0 24 24" fill="none" xmlns="http://www.w3.org/2000/svg">
    <path fill-rule="evenodd" clip-rule="evenodd"
        d="M20.5039 21.0037H14.0012C13.7249 21.0037 13.501 20.7797 13.501 20.5035V20.0973C13.5043 18.9417 14.4403 18.0057 15.5958 18.0024H18.9092C20.0648 18.0057 21.0008 18.9417 21.0041 20.0973V20.5035C21.0041 20.7797 20.7802 21.0037 20.5039 21.0037Z"
        stroke="currentColor" stroke-width="1.5" stroke-linecap="round" stroke-linejoin="round" />
    <path fill-rule="evenodd" clip-rule="evenodd"
        d="M17.2527 15.5014C16.1484 15.4992 15.2548 14.6028 15.2559 13.4986C15.257 12.3943 16.1524 11.4998 17.2567 11.4998C18.3609 11.4998 19.2564 12.3943 19.2575 13.4986C19.2586 14.6028 18.3649 15.4992 17.2607 15.5014H17.2527Z"
        stroke="currentColor" stroke-width="1.5" stroke-linecap="round" stroke-linejoin="round" />
    <path
        d="M15.0015 3.07325V6.5637C15.0015 7.11622 14.5536 7.56412 14.0011 7.56412H9.99944C9.44693 7.56412 8.99902 7.11622 8.99902 6.5637V2.99622"
        stroke="currentColor" stroke-width="1.5" stroke-linecap="round" stroke-linejoin="round" />
    <path
        d="M21.0036 8.99872V4.99705C21.0036 3.89202 20.1078 2.99622 19.0028 2.99622H4.99693C3.8919 2.99622 2.99609 3.89202 2.99609 4.99705V18.0025C2.99609 19.1075 3.8919 20.0033 4.99693 20.0033H9.99901"
        stroke="currentColor" stroke-width="1.5" stroke-linecap="round" stroke-linejoin="round" />
</svg>