<svg width="24" height="24" viewBox="0 0 24 24" fill="none" xmlns="http://www.w3.org/2000/svg">
    <path d="M4.99693 2.99622C3.8919 2.99622 2.99609 3.89202 2.99609 4.99705" stroke="currentColor" stroke-width="1.5"
        stroke-linecap="round" stroke-linejoin="round" />
    <path d="M2.9963 8.32849V10.3293" stroke="currentColor" stroke-width="1.5" stroke-linecap="round"
        stroke-linejoin="round" />
    <path d="M8.32812 2.9963H10.329" stroke="currentColor" stroke-width="1.5" stroke-linecap="round"
        stroke-linejoin="round" />
    <path d="M19.0029 21.0038C20.108 21.0038 21.0038 20.108 21.0038 19.0029" stroke="currentColor" stroke-width="1.5"
        stroke-linecap="round" stroke-linejoin="round" />
    <path d="M21.0041 15.6715V13.6707" stroke="currentColor" stroke-width="1.5" stroke-linecap="round"
        stroke-linejoin="round" />
    <path d="M15.6717 21.0037H13.6709" stroke="currentColor" stroke-width="1.5" stroke-linecap="round"
        stroke-linejoin="round" />
    <path
        d="M14.001 4.35181V8.99874C14.001 9.55126 14.4489 9.99916 15.0014 9.99916H20.0565C20.609 9.99916 21.0569 9.55126 21.0569 8.99874V4.35181"
        stroke="currentColor" stroke-width="1.5" stroke-linecap="round" stroke-linejoin="round" />
    <path d="M13.001 4.9971L17.5949 1.99585L22.0047 4.9971" stroke="currentColor" stroke-width="1.5"
        stroke-linecap="round" stroke-linejoin="round" />
    <path d="M6.99826 13.0004V16.0016" stroke="currentColor" stroke-width="1.5" stroke-linecap="round"
        stroke-linejoin="round" />
    <path
        d="M10.9994 16.8911C10.9994 16.3999 10.6012 16.0017 10.1101 16.0017H3.88546C3.39428 16.0017 2.99609 16.3999 2.99609 16.8911"
        stroke="currentColor" stroke-width="1.5" stroke-linecap="round" stroke-linejoin="round" />
    <path fill-rule="evenodd" clip-rule="evenodd"
        d="M4.13957 21.0037H9.85595C10.4875 21.0037 10.9994 20.4917 10.9994 19.8602V15.7845C10.9993 15.321 10.9054 14.8622 10.7233 14.436L10.4062 13.6947C10.2263 13.2736 9.81262 13.0004 9.35474 13.0004H4.63978C4.18198 13.0007 3.76842 13.2738 3.58834 13.6947L3.27221 14.435C3.09011 14.8612 2.99618 15.32 2.99609 15.7835V19.8602C2.99609 20.4917 3.50805 21.0037 4.13957 21.0037Z"
        stroke="currentColor" stroke-width="1.5" stroke-linecap="round" stroke-linejoin="round" />
</svg>