<svg width="24" height="24" viewBox="0 0 24 24" fill="none" xmlns="http://www.w3.org/2000/svg">
    <path d="M12.0002 7.49817V9.99921" stroke="currentColor" stroke-width="1.5" stroke-linecap="round"
        stroke-linejoin="round" />
    <path
        d="M16.5018 15.1833V11.6818C16.5018 11.1293 16.0539 10.6814 15.5014 10.6814H8.49846C7.94595 10.6814 7.49805 11.1293 7.49805 11.6818V15.1833"
        stroke="currentColor" stroke-width="1.5" stroke-linecap="round" stroke-linejoin="round" />
    <path fill-rule="evenodd" clip-rule="evenodd"
        d="M15.5014 16.5019H8.62352C8.00194 16.5019 7.49805 15.998 7.49805 15.3765V10.2483C7.49824 9.97803 7.55302 9.71058 7.65911 9.46199L8.20634 8.18145C8.38369 7.76704 8.79101 7.49817 9.24177 7.49817H14.7581C15.2086 7.49838 15.6155 7.7672 15.7925 8.18145L16.3407 9.46299C16.4468 9.71158 16.5016 9.97903 16.5018 10.2493V15.5015C16.5018 16.054 16.0539 16.5019 15.5014 16.5019Z"
        stroke="currentColor" stroke-width="1.5" stroke-linecap="round" stroke-linejoin="round" />
    <path fill-rule="evenodd" clip-rule="evenodd"
        d="M11.9998 21.0037C16.9725 21.0037 21.0036 16.9726 21.0036 12C21.0036 7.02733 16.9725 2.99622 11.9998 2.99622C7.02721 2.99622 2.99609 7.02733 2.99609 12C2.99609 16.9726 7.02721 21.0037 11.9998 21.0037Z"
        stroke="currentColor" stroke-width="1.5" stroke-linecap="round" stroke-linejoin="round" />
</svg>