<svg width="24" height="24" viewBox="0 0 24 24" fill="none" xmlns="http://www.w3.org/2000/svg">
    <path fill-rule="evenodd" clip-rule="evenodd"
        d="M13.0868 19.7712L12.9428 18.6858L12.2775 17.8154C11.9114 17.3361 11.9114 16.6711 12.2775 16.1917L12.9428 15.3214L13.0878 14.2349C13.1671 13.6366 13.6379 13.1658 14.2363 13.0865L15.3218 12.9424L16.1921 12.2771C16.6714 11.911 17.3365 11.911 17.8158 12.2771L18.6862 12.9424L19.7726 13.0875C20.3706 13.1674 20.8411 13.6379 20.9211 14.2359L21.0651 15.3214L21.7304 16.1917C22.0955 16.6714 22.0955 17.3357 21.7304 17.8154L21.0651 18.6858L20.9201 19.7722C20.8395 20.37 20.3693 20.8401 19.7716 20.9207L18.6862 21.0648L17.8158 21.7301C17.3361 22.0951 16.6718 22.0951 16.1921 21.7301L15.3218 21.0648L14.2353 20.9197C13.6371 20.8401 13.1665 20.3694 13.0868 19.7712Z"
        stroke="currentColor" stroke-width="1.5" stroke-linecap="round" stroke-linejoin="round" />
    <path d="M18.5615 16.2247L16.6157 18.1705L15.4482 17.0021" stroke="currentColor" stroke-width="1.5"
        stroke-linecap="round" stroke-linejoin="round" />
    <path
        d="M15.0015 3.07325V6.5637C15.0015 7.11622 14.5536 7.56412 14.0011 7.56412H9.99944C9.44693 7.56412 8.99902 7.11622 8.99902 6.5637V2.99622"
        stroke="currentColor" stroke-width="1.5" stroke-linecap="round" stroke-linejoin="round" />
    <path
        d="M21.0036 9.99913V4.99705C21.0036 3.89202 20.1078 2.99622 19.0028 2.99622H4.99693C3.8919 2.99622 2.99609 3.89202 2.99609 4.99705V18.0025C2.99609 19.1075 3.8919 20.0033 4.99693 20.0033H9.99901"
        stroke="currentColor" stroke-width="1.5" stroke-linecap="round" stroke-linejoin="round" />
</svg>