<svg width="24" height="24" viewBox="0 0 24 24" fill="none" xmlns="http://www.w3.org/2000/svg">
    <path
        d="M14.9171 11.979C14.9641 12.06 15.0031 12.146 15.0571 12.222C15.4691 12.8 15.6581 13.506 15.5901 14.213C15.5721 14.4 15.5721 14.588 15.5901 14.774C15.6571 15.48 15.4681 16.187 15.0571 16.765V16.765C14.9481 16.918 14.8541 17.08 14.7761 17.251C14.4811 17.896 13.9641 18.414 13.3191 18.708C13.1481 18.786 12.9861 18.88 12.8331 18.989C12.2551 19.401 11.5491 19.59 10.8421 19.522C10.6551 19.504 10.4671 19.504 10.2811 19.522C9.57511 19.589 8.86811 19.4 8.29011 18.989C8.13711 18.88 7.97511 18.786 7.80411 18.708C7.15911 18.413 6.64111 17.896 6.34711 17.251C6.26911 17.08 6.17511 16.918 6.06611 16.765V16.765C5.65411 16.187 5.46511 15.481 5.53311 14.774C5.55111 14.587 5.55111 14.4 5.53311 14.213C5.46611 13.507 5.65511 12.8 6.06611 12.222C6.17511 12.069 6.26911 11.907 6.34711 11.736C6.64211 11.091 7.15911 10.573 7.80411 10.279C7.97511 10.201 8.13711 10.107 8.29011 9.99799C8.86811 9.58599 9.57411 9.39699 10.2811 9.46499C10.3741 9.47399 10.4681 9.46499 10.5621 9.46499"
        stroke="currentColor" stroke-width="1.5" stroke-linecap="round" stroke-linejoin="round" />
    <path fill-rule="evenodd" clip-rule="evenodd"
        d="M17.106 10.715C17.75 11.828 18.124 13.115 18.124 14.493C18.124 18.67 14.738 22.055 10.562 22.055C6.386 22.055 3 18.67 3 14.493C3 10.316 6.386 6.93103 10.562 6.93103V14.493L17.106 10.715Z"
        stroke="currentColor" stroke-width="1.5" stroke-linecap="round" stroke-linejoin="round" />
    <path
        d="M13.4092 4.53404C13.5032 4.53404 13.5962 4.54304 13.6902 4.53404C14.3962 4.46604 15.1032 4.65604 15.6812 5.06704C15.8342 5.17604 15.9962 5.27004 16.1672 5.34804C16.8122 5.64304 17.3302 6.16004 17.6242 6.80504C17.6632 6.89004 17.7172 6.96704 17.7642 7.04804"
        stroke="currentColor" stroke-width="1.5" stroke-linecap="round" stroke-linejoin="round" />
    <path d="M17.7642 7.048L13.4102 9.562L19.9542 5.784C18.6452 3.524 16.2082 2 13.4092 2V9.562" stroke="currentColor"
        stroke-width="1.5" stroke-linecap="round" stroke-linejoin="round" />
    <path
        d="M10.0354 17.0146C10.0549 17.0341 10.0549 17.0658 10.0354 17.0853C10.0158 17.1048 9.98417 17.1048 9.96464 17.0853C9.94512 17.0658 9.94512 17.0341 9.96464 17.0146C9.98417 16.995 10.0158 16.995 10.0354 17.0146"
        stroke="currentColor" stroke-width="1.5" stroke-linecap="round" stroke-linejoin="round" />
    <path
        d="M13.0354 15.9646C13.0549 15.9842 13.0549 16.0158 13.0354 16.0354C13.0158 16.0549 12.9842 16.0549 12.9646 16.0354C12.9451 16.0158 12.9451 15.9842 12.9646 15.9646C12.9842 15.9451 13.0158 15.9451 13.0354 15.9646"
        stroke="currentColor" stroke-width="1.5" stroke-linecap="round" stroke-linejoin="round" />
    <path
        d="M8.03536 13.9646C8.05488 13.9842 8.05488 14.0158 8.03536 14.0354C8.01583 14.0549 7.98417 14.0549 7.96464 14.0354C7.94512 14.0158 7.94512 13.9842 7.96464 13.9646C7.98417 13.9451 8.01583 13.9451 8.03536 13.9646"
        stroke="currentColor" stroke-width="1.5" stroke-linecap="round" stroke-linejoin="round" />
</svg>