<svg width="24" height="24" viewBox="0 0 24 24" fill="none" xmlns="http://www.w3.org/2000/svg">
    <path
        d="M18.8433 7.99783C18.9548 7.15075 18.4832 6.33446 17.6936 6.00792L17.6539 5.99149C17.1909 5.79996 16.823 5.43211 16.6315 4.96906L16.6149 4.92905C16.2885 4.13966 15.4723 3.66813 14.6254 3.77957L14.5794 3.78557C14.082 3.85103 13.5789 3.71613 13.1809 3.41055L13.1493 3.38646C12.4718 2.8663 11.5294 2.8663 10.8519 3.38646L10.8162 3.4139C10.4195 3.71845 9.91804 3.85289 9.42222 3.78763L9.37487 3.7814C8.52781 3.66993 7.71163 4.14181 7.3856 4.93151L7.36971 4.96998C7.17831 5.43361 6.81005 5.80186 6.34643 5.99326L6.30795 6.00915C5.51825 6.33517 5.04636 7.15133 5.15781 7.99838"
        stroke="currentColor" stroke-width="1.5" stroke-linecap="round" stroke-linejoin="round" />
    <path fill-rule="evenodd" clip-rule="evenodd"
        d="M4.99749 7.99829H19.0029C19.2948 7.99829 19.5721 8.12577 19.7622 8.34731C19.9522 8.56884 20.0361 8.86233 19.9917 9.15083L18.2987 20.1554C18.2236 20.6434 17.8037 21.0037 17.3099 21.0037H6.69051C6.19673 21.0037 5.77681 20.6434 5.70173 20.1554L4.00871 9.15083C3.96433 8.86233 4.04815 8.56884 4.23821 8.34731C4.42827 8.12577 4.7056 7.99829 4.99749 7.99829Z"
        stroke="currentColor" stroke-width="1.5" stroke-linecap="round" stroke-linejoin="round" />
    <path d="M14.501 21.0037L15.5014 7.99829" stroke="currentColor" stroke-width="1.5" stroke-linecap="round"
        stroke-linejoin="round" />
    <path d="M9.49944 21.0037L8.49902 7.99829" stroke="currentColor" stroke-width="1.5" stroke-linecap="round"
        stroke-linejoin="round" />
</svg>