<svg width="24" height="24" viewBox="0 0 24 24" fill="none" xmlns="http://www.w3.org/2000/svg">
    <path
        d="M9.72299 18.963L8.73299 19.953C8.00399 20.682 6.82199 20.682 6.09299 19.953V19.953C5.73299 19.593 5.53699 19.068 5.63499 18.507V18.507C5.77099 17.723 5.32699 16.954 4.57999 16.679C3.51099 16.286 3.15299 14.953 3.88299 14.078C4.39299 13.467 4.39299 12.579 3.88299 11.968C3.15299 11.093 3.51099 9.75999 4.57999 9.36699C5.32699 9.09299 5.77099 8.32399 5.63499 7.53899C5.43999 6.41699 6.41699 5.43999 7.53899 5.63499C8.32299 5.77099 9.09299 5.32699 9.36699 4.57999C9.75999 3.51099 11.093 3.15299 11.968 3.88299C12.579 4.39299 13.467 4.39299 14.078 3.88299C14.953 3.15299 16.287 3.51099 16.679 4.57999C16.953 5.32699 17.722 5.77099 18.507 5.63499V5.63499C19.068 5.53799 19.593 5.73299 19.953 6.09299V6.09299C20.682 6.82199 20.682 8.00399 19.953 8.73299L18.963 9.72299"
        stroke="currentColor" stroke-width="1.5" stroke-linecap="round" stroke-linejoin="round" />
    <path fill-rule="evenodd" clip-rule="evenodd"
        d="M18.9634 12.363L12.3634 18.963C11.6344 19.692 10.4524 19.692 9.72341 18.963L9.06341 18.303C6.51141 15.751 6.51141 11.615 9.06341 9.06305V9.06305C11.6154 6.51105 15.7514 6.51105 18.3034 9.06305L18.9634 9.72305C19.6924 10.452 19.6924 11.634 18.9634 12.363Z"
        stroke="currentColor" stroke-width="1.5" stroke-linecap="round" stroke-linejoin="round" />
</svg>