<svg width="24" height="24" viewBox="0 0 24 24" fill="none" xmlns="http://www.w3.org/2000/svg">
    <path fill-rule="evenodd" clip-rule="evenodd"
        d="M15 16H7C5.343 16 4 14.657 4 13V7C4 5.895 4.895 5 6 5H16C17.105 5 18 5.895 18 7V13C18 14.657 16.657 16 15 16Z"
        stroke="currentColor" stroke-width="1.5" stroke-linecap="round" stroke-linejoin="round" />
    <path d="M18 13H20C21.105 13 22 12.105 22 11V9C22 8.448 21.552 8 21 8H18" stroke="currentColor" stroke-width="1.5"
        stroke-linecap="round" stroke-linejoin="round" />
    <path d="M5 20H17" stroke="currentColor" stroke-width="1.5" stroke-linecap="round" stroke-linejoin="round" />
    <path fill-rule="evenodd" clip-rule="evenodd" d="M11 12H8V9C8 8.448 8.448 8 9 8H10C10.552 8 11 8.448 11 9V12Z"
        stroke="currentColor" stroke-width="1.5" stroke-linecap="round" stroke-linejoin="round" />
    <path d="M9.5 8V5" stroke="currentColor" stroke-width="1.5" stroke-linecap="round" stroke-linejoin="round" />
</svg>