<svg width="24" height="24" viewBox="0 0 24 24" fill="none" xmlns="http://www.w3.org/2000/svg">
    <path d="M18 6L17.557 4.451C17.312 3.592 16.527 3 15.634 3H8.366C7.473 3 6.688 3.592 6.443 4.451L6 6"
        stroke="currentColor" stroke-width="1.5" stroke-linecap="round" stroke-linejoin="round" />
    <path
        d="M18.417 9L17.209 19.234C17.09 20.241 16.236 21 15.222 21H8.77801C7.76401 21 6.91101 20.241 6.79201 19.234L5.58301 9"
        stroke="currentColor" stroke-width="1.5" stroke-linecap="round" stroke-linejoin="round" />
    <path
        d="M13.4142 13.5858C14.1953 14.3668 14.1953 15.6332 13.4142 16.4142C12.6332 17.1953 11.3668 17.1953 10.5858 16.4142C9.80474 15.6332 9.80474 14.3668 10.5858 13.5858C11.3668 12.8047 12.6332 12.8047 13.4142 13.5858"
        stroke="currentColor" stroke-width="1.5" stroke-linecap="round" stroke-linejoin="round" />
    <path fill-rule="evenodd" clip-rule="evenodd"
        d="M5.33414 6H18.6661C19.0961 6 19.4791 6.275 19.6151 6.684L19.9481 7.684C20.1641 8.331 19.6821 9 18.9991 9H5.00114C4.31814 9 3.83614 8.331 4.05214 7.684L4.38514 6.684C4.52214 6.275 4.90414 6 5.33414 6Z"
        stroke="currentColor" stroke-width="1.5" stroke-linecap="round" stroke-linejoin="round" />
</svg>